<svg width="20" height="20" viewBox="0 0 20 20" fill="none" xmlns="http://www.w3.org/2000/svg">
<path d="M19.0016 0.0251526C19.5516 0.0281526 19.9966 0.474153 19.9966 1.02415L19.9996 5.99915C20.0006 6.55115 19.5526 7.00015 19.0006 7.00015C18.4486 7.00015 18.0006 6.55215 17.9996 6.00115L17.9976 3.41615L14.7066 6.70715C14.5116 6.90215 14.2556 7.00015 13.9996 7.00015C13.7446 7.00015 13.4886 6.90215 13.2926 6.70715C12.9026 6.31615 12.9026 5.68315 13.2926 5.29315L16.5726 2.01315L13.9956 2.00015C13.4426 1.99715 12.9966 1.54615 12.9996 0.995153C13.0026 0.444153 13.4506 0.000152588 13.9996 0.000152588H14.0046L19.0016 0.0251526Z" fill="white"/>
<path d="M5.29302 13.2928C5.68402 12.9018 6.31602 12.9018 6.70702 13.2928C7.09802 13.6838 7.09802 14.3158 6.70702 14.7068L3.41502 17.9988L6.00002 17.9998C6.55302 17.9998 7.00002 18.4478 7.00002 19.0008C6.99902 19.5528 6.55202 19.9998 6.00002 19.9998L1.02402 19.9968C0.474017 19.9968 0.0280167 19.5518 0.0250167 19.0018L1.67152e-05 14.0048C-0.00298328 13.4528 0.443017 13.0028 0.995017 12.9998H1.00002C1.55002 12.9998 1.99702 13.4438 2.00002 13.9948L2.01302 16.5728L5.29302 13.2928Z" fill="white"/>
<path d="M0.998003 0.0251221C0.448002 0.0281221 0.00300193 0.474122 0.00300193 1.02412L1.66902e-06 5.99912C-0.000997782 6.55112 0.447002 7.00012 0.999002 7.00012C1.551 7.00012 1.999 6.55212 2 6.00112L2.002 3.41612L5.293 6.70712C5.488 6.90212 5.744 7.00012 6 7.00012C6.255 7.00012 6.511 6.90212 6.707 6.70712C7.097 6.31612 7.097 5.68312 6.707 5.29312L3.427 2.01312L6.004 2.00012C6.557 1.99712 7.003 1.54612 7 0.995122C6.997 0.444122 6.549 0.00012207 6 0.00012207H5.995L0.998003 0.0251221Z" fill="white"/>
<path d="M14.7066 13.2927C14.3156 12.9017 13.6836 12.9017 13.2926 13.2927C12.9016 13.6837 12.9016 14.3157 13.2926 14.7067L16.5846 17.9987L13.9996 17.9997C13.4466 17.9997 12.9996 18.4477 12.9996 19.0007C13.0006 19.5527 13.4476 19.9997 13.9996 19.9997L18.9756 19.9967C19.5256 19.9967 19.9716 19.5517 19.9746 19.0017L19.9996 14.0047C20.0026 13.4527 19.5566 13.0027 19.0046 12.9997H18.9996C18.4496 12.9997 18.0026 13.4437 17.9996 13.9947L17.9866 16.5727L14.7066 13.2927Z" fill="white"/>
</svg>
