<svg width="40" height="40" viewBox="0 0 40 40" fill="none" xmlns="http://www.w3.org/2000/svg">
<g filter="url(#filter0_d)">
<circle cx="20" cy="19" r="19" fill="url(#paint0_linear)"/>
</g>
<path d="M22.8204 25.3449L22.6306 26.2209C22.0614 26.4746 21.6067 26.6678 21.2681 26.8005C20.9292 26.9337 20.5353 27 20.0866 27C19.3975 27 18.8615 26.8093 18.4792 26.4306C18.0969 26.0504 17.9057 25.5686 17.9057 24.9842C17.9057 24.7579 17.9196 24.5252 17.9485 24.2881C17.9775 24.0507 18.0238 23.7833 18.0871 23.4845L18.7985 19.978C18.8617 19.7057 18.9155 19.4477 18.9586 19.2037C19.0023 18.9612 19.0234 18.7381 19.0234 18.5373C19.0234 18.1741 18.9568 17.9201 18.8243 17.7773C18.6917 17.6349 18.4388 17.5626 18.0633 17.5626C17.8794 17.5626 17.6904 17.5958 17.4978 17.6602C17.3043 17.7248 17.1389 17.7872 17 17.8452L17.1902 16.9685C17.6562 16.7542 18.1017 16.5707 18.5278 16.4184C18.9539 16.2656 19.3565 16.1892 19.7373 16.1892C20.4217 16.1892 20.9497 16.376 21.3206 16.7496C21.6914 17.1235 21.8768 17.6082 21.8768 18.2055C21.8768 18.329 21.8646 18.5468 21.8384 18.858C21.8129 19.1699 21.7653 19.4557 21.6959 19.7156L20.9876 23.2107C20.9295 23.4382 20.8773 23.6982 20.8319 23.9909C20.7851 24.2816 20.7627 24.5037 20.7627 24.6527C20.7627 25.0288 20.8369 25.2856 20.9858 25.4221C21.1357 25.5586 21.394 25.6265 21.7608 25.6265C21.933 25.6265 22.1289 25.592 22.3467 25.5242C22.5638 25.4565 22.7221 25.397 22.8204 25.3449ZM23 12.7911C23 13.2846 22.8353 13.706 22.5044 14.0526C22.1743 14.4003 21.7766 14.5743 21.3113 14.5743C20.8446 14.5743 20.4459 14.4003 20.112 14.0526C19.7788 13.7059 19.6118 13.2846 19.6118 12.7911C19.6118 12.2986 19.7788 11.8764 20.112 11.5255C20.4453 11.1751 20.8447 11 21.3113 11C21.7765 11 22.1743 11.1755 22.5044 11.5255C22.8356 11.8764 23 12.2987 23 12.7911Z" fill="#DE3131"/>
<defs>
<filter id="filter0_d" x="0" y="0" width="40" height="40" filterUnits="userSpaceOnUse" color-interpolation-filters="sRGB">
<feFlood flood-opacity="0" result="BackgroundImageFix"/>
<feColorMatrix in="SourceAlpha" type="matrix" values="0 0 0 0 0 0 0 0 0 0 0 0 0 0 0 0 0 0 127 0"/>
<feOffset dy="1"/>
<feGaussianBlur stdDeviation="0.5"/>
<feColorMatrix type="matrix" values="0 0 0 0 0 0 0 0 0 0 0 0 0 0 0 0 0 0 0.15 0"/>
<feBlend mode="normal" in2="BackgroundImageFix" result="effect1_dropShadow"/>
<feBlend mode="normal" in="SourceGraphic" in2="effect1_dropShadow" result="shape"/>
</filter>
<linearGradient id="paint0_linear" x1="20" y1="0" x2="20" y2="38" gradientUnits="userSpaceOnUse">
<stop stop-color="white"/>
<stop offset="1" stop-color="#F7F7F7"/>
</linearGradient>
</defs>
</svg>
