<svg width="50" height="50" viewBox="0 0 50 50" fill="none" xmlns="http://www.w3.org/2000/svg">
<path d="M43.5484 11.2903V0H0V45.9677C0 48.1911 1.80887 50 4.03226 50H45.9677C48.1911 50 50 48.1911 50 45.9677V11.2903H43.5484ZM4.03226 48.3871C2.69839 48.3871 1.6129 47.3016 1.6129 45.9677V1.6129H41.9355V45.9677C41.9355 46.879 42.2508 47.7113 42.7629 48.3871H4.03226ZM48.3871 45.9677C48.3871 47.3016 47.3016 48.3871 45.9677 48.3871C44.6339 48.3871 43.5484 47.3016 43.5484 45.9677V12.9032H48.3871V45.9677Z" fill="#DE3131"/>
<path d="M14.5161 12.9032C13.6266 12.9032 12.9032 12.1798 12.9032 11.2903C12.9032 10.4008 13.6266 9.67742 14.5161 9.67742C15.4056 9.67742 16.129 10.4008 16.129 11.2903H17.7419C17.7419 9.79194 16.7105 8.53952 15.3226 8.17903V6.45161H13.7097V8.17903C12.3218 8.53952 11.2903 9.79194 11.2903 11.2903C11.2903 13.0694 12.7371 14.5161 14.5161 14.5161C15.4056 14.5161 16.129 15.2395 16.129 16.129C16.129 17.0185 15.4056 17.7419 14.5161 17.7419C13.6266 17.7419 12.9032 17.0185 12.9032 16.129H11.2903C11.2903 17.6274 12.3218 18.8798 13.7097 19.2403V20.9677H15.3226V19.2403C16.7105 18.8798 17.7419 17.6274 17.7419 16.129C17.7419 14.35 16.2952 12.9032 14.5161 12.9032Z" fill="#DE3131"/>
<path d="M3.22581 3.22581V24.1935H25.8065V3.22581H3.22581ZM24.1935 22.5806H4.83871V4.83871H24.1935V22.5806Z" fill="#DE3131"/>
<path d="M38.7097 45.1613V32.2581H33.871V45.1613H30.6452V35.4839H25.8065V45.1613H22.5806V32.2581H17.7419V45.1613H16.129V46.7742H40.3226V45.1613H38.7097ZM20.9677 45.1613H19.3548V33.871H20.9677V45.1613ZM29.0323 45.1613H27.4194V37.0968H29.0323V45.1613ZM37.0968 45.1613H35.4839V33.871H37.0968V45.1613Z" fill="#DE3131"/>
<path d="M40.3226 3.22581H27.4194V4.83871H40.3226V3.22581Z" fill="#DE3131"/>
<path d="M40.3226 6.45161H27.4194V8.06452H40.3226V6.45161Z" fill="#DE3131"/>
<path d="M40.3226 9.67742H27.4194V11.2903H40.3226V9.67742Z" fill="#DE3131"/>
<path d="M40.3226 12.9032H27.4194V14.5161H40.3226V12.9032Z" fill="#DE3131"/>
<path d="M37.0968 16.129H27.4194V17.7419H37.0968V16.129Z" fill="#DE3131"/>
<path d="M40.3226 16.129H38.7097V17.7419H40.3226V16.129Z" fill="#DE3131"/>
<path d="M16.129 25.8065H3.22581V27.4194H16.129V25.8065Z" fill="#DE3131"/>
<path d="M16.129 29.0323H3.22581V30.6452H16.129V29.0323Z" fill="#DE3131"/>
<path d="M16.129 32.2581H3.22581V33.871H16.129V32.2581Z" fill="#DE3131"/>
<path d="M16.129 35.4839H3.22581V37.0968H16.129V35.4839Z" fill="#DE3131"/>
<path d="M16.129 38.7097H14.5161V40.3226H16.129V38.7097Z" fill="#DE3131"/>
<path d="M12.9032 38.7097H3.22581V40.3226H12.9032V38.7097Z" fill="#DE3131"/>
<path d="M36.2903 25.8065C34.9565 25.8065 33.871 26.8919 33.871 28.2258C33.871 28.2589 33.879 28.2887 33.8806 28.321L30.0339 29.8597C29.5903 29.3565 28.9484 29.0323 28.2258 29.0323C27.5032 29.0323 26.8613 29.3565 26.4177 29.8605L22.571 28.321C22.5726 28.2887 22.5806 28.2589 22.5806 28.2258C22.5806 26.8919 21.4952 25.8065 20.1613 25.8065C18.8274 25.8065 17.7419 26.8919 17.7419 28.2258C17.7419 29.5597 18.8274 30.6452 20.1613 30.6452C20.8839 30.6452 21.5258 30.321 21.9694 29.8169L25.8161 31.3556C25.8145 31.3887 25.8065 31.4185 25.8065 31.4516C25.8065 32.7855 26.8919 33.871 28.2258 33.871C29.5597 33.871 30.6452 32.7855 30.6452 31.4516C30.6452 31.4185 30.6371 31.3887 30.6355 31.3565L34.4823 29.8177C34.9258 30.321 35.5677 30.6452 36.2903 30.6452C37.6242 30.6452 38.7097 29.5597 38.7097 28.2258C38.7097 26.8919 37.6242 25.8065 36.2903 25.8065ZM20.1613 29.0323C19.7161 29.0323 19.3548 28.6702 19.3548 28.2258C19.3548 27.7815 19.7161 27.4194 20.1613 27.4194C20.6065 27.4194 20.9677 27.7815 20.9677 28.2258C20.9677 28.6702 20.6065 29.0323 20.1613 29.0323ZM28.2258 32.2581C27.7806 32.2581 27.4194 31.896 27.4194 31.4516C27.4194 31.0073 27.7806 30.6452 28.2258 30.6452C28.671 30.6452 29.0323 31.0073 29.0323 31.4516C29.0323 31.896 28.671 32.2581 28.2258 32.2581ZM36.2903 29.0323C35.8452 29.0323 35.4839 28.6702 35.4839 28.2258C35.4839 27.7815 35.8452 27.4194 36.2903 27.4194C36.7355 27.4194 37.0968 27.7815 37.0968 28.2258C37.0968 28.6702 36.7355 29.0323 36.2903 29.0323Z" fill="#DE3131"/>
<path d="M20.9677 12.9032H19.3548V14.5161H20.9677V12.9032Z" fill="#DE3131"/>
<path d="M9.67742 12.9032H8.06452V14.5161H9.67742V12.9032Z" fill="#DE3131"/>
</svg>
