<svg width="42" height="24" viewBox="0 0 42 24" fill="none" xmlns="http://www.w3.org/2000/svg">
<g clip-path="url(#clip0)">
<path fill-rule="evenodd" clip-rule="evenodd" d="M2.00391 13.1092L20.9617 0L28.5911 5.31933C19.8828 3.63025 10.9434 7.36135 2.00391 13.1092Z" fill="#2B5D84"/>
<path fill-rule="evenodd" clip-rule="evenodd" d="M39.7137 13.084L30.1834 6.42854C25.6623 5.31929 21.3467 6.02518 16.877 6.65543C26.3045 7.23526 33.8054 9.27728 39.7137 13.084Z" fill="#D76654"/>
<path fill-rule="evenodd" clip-rule="evenodd" d="M32.5978 9.60508C35.1922 10.5379 37.5556 11.6975 39.7134 13.0841C36.4253 10.9664 33.5996 9.05046 30.2088 7.51265C25.2767 6.55466 20.6528 6.45382 16.9023 6.6555C22.2968 6.98324 27.5886 7.76475 32.5978 9.60508Z" fill="#D35443"/>
<path fill-rule="evenodd" clip-rule="evenodd" d="M31.0826 10.3865C25.7395 8.52098 20.6789 7.89072 15.4386 7.51257C12.3046 8.5714 9.71012 9.90753 6.57617 11.7479C14.4624 9.27728 22.6312 8.69745 31.0826 10.3865Z" fill="#7FBBEB"/>
<path fill-rule="evenodd" clip-rule="evenodd" d="M8.04009 11.294C12.7924 9.95785 17.6217 9.3276 22.5538 9.42844C25.4052 9.47886 28.2566 9.80659 31.0566 10.3612C26.2529 9.22676 21.4236 8.49567 16.4401 8.69735C12.33 9.42844 9.35018 10.5377 6.60156 11.6973C7.08964 11.5713 7.55202 11.4452 8.04009 11.294Z" fill="#6290CC"/>
<path fill-rule="evenodd" clip-rule="evenodd" d="M2.00391 13.1092L20.9617 0L28.5911 5.31933C19.8828 3.63025 10.9434 7.36135 2.00391 13.1092Z" fill="#5682B8"/>
<path fill-rule="evenodd" clip-rule="evenodd" d="M2.08105 13.0589L2.33794 12.8824C8.04069 9.20173 13.8205 5.64711 20.3196 3.1261C23.171 3.60509 25.8682 4.36139 28.5141 5.31938C19.8315 3.68072 10.9691 7.36139 2.08105 13.0589Z" fill="#2B5D84"/>
<path fill-rule="evenodd" clip-rule="evenodd" d="M20.9618 0L20.2939 3.12605C22.9912 3.52941 25.7655 4.36135 28.5912 5.34454L20.9618 0Z" fill="#5D8FC8"/>
<path fill-rule="evenodd" clip-rule="evenodd" d="M30.2345 7.53787L30.2088 6.45384C26.3556 5.47064 21.3978 5.79837 16.9023 6.68073C21.0381 6.57989 26.4583 6.75636 30.2345 7.53787Z" fill="#D9715F"/>
<path fill-rule="evenodd" clip-rule="evenodd" d="M6.42188 11.8235C9.09343 10.1848 12.0476 8.72266 15.4384 7.51257L16.4659 8.72266C13.1265 9.27728 9.65857 10.3865 6.42188 11.8235Z" fill="#73ACE1"/>
<path d="M2.85138 13.9664C2.82569 13.9664 2.82569 13.9664 2.8 13.9916C2.8 14.0169 2.77431 14.0169 2.74862 14.0673C2.72294 14.1177 2.69725 14.1681 2.67156 14.2437L0.950459 18.958C0.899083 19.0841 0.847706 19.2101 0.79633 19.2858C0.744954 19.3866 0.66789 19.4622 0.590826 19.5379C0.513762 19.6135 0.411009 19.6387 0.282569 19.6639C0.256881 19.6639 0.205505 19.6639 0.179817 19.6639C0.12844 19.6639 0.102752 19.6639 0.0770642 19.6639C0.0513762 19.6639 0.0513762 19.6639 0.0256881 19.6639C0 19.6891 0 19.7143 0 19.7143C0 19.7395 0 19.7395 0.0256881 19.7648C0.0513762 19.79 0.0770642 19.79 0.12844 19.79C0.231193 19.79 0.308257 19.79 0.411009 19.79C0.513762 19.79 0.590826 19.79 0.66789 19.79C0.744954 19.79 0.822018 19.79 0.873395 19.79C0.924771 19.79 0.976147 19.79 1.00183 19.79C1.02752 19.79 1.05321 19.79 1.10459 19.79C1.15596 19.79 1.20734 19.79 1.25872 19.79C1.31009 19.79 1.38716 19.79 1.43853 19.79C1.48991 19.79 1.54128 19.79 1.59266 19.79C1.61835 19.79 1.64404 19.79 1.66972 19.7648C1.69541 19.7648 1.69541 19.7395 1.69541 19.7143C1.69541 19.6891 1.69541 19.6891 1.66972 19.6891C1.64404 19.6891 1.64404 19.6891 1.61835 19.6891H1.56697C1.5156 19.6891 1.46422 19.6891 1.43853 19.6639C1.38716 19.6387 1.36147 19.6387 1.33578 19.5883C1.31009 19.5631 1.2844 19.5126 1.2844 19.4622C1.2844 19.3866 1.2844 19.311 1.31009 19.2353C1.33578 19.1597 1.36147 19.0589 1.38716 18.958L1.84954 17.6219C1.84954 17.5967 1.87523 17.5967 1.87523 17.5715C1.87523 17.5463 1.90092 17.5463 1.92661 17.5463H3.59633C3.62202 17.5463 3.62202 17.5463 3.64771 17.5463L3.67339 17.5715L4.39266 19.437C4.39266 19.4622 4.41835 19.4622 4.41835 19.4874C4.41835 19.5127 4.41835 19.5126 4.41835 19.5379C4.41835 19.5631 4.41835 19.5883 4.39266 19.6135C4.34128 19.6639 4.34128 19.6639 4.34128 19.6639C4.3156 19.6639 4.3156 19.6639 4.3156 19.6891L4.28991 19.7143C4.28991 19.7395 4.3156 19.7395 4.34128 19.7395C4.36697 19.7395 4.44404 19.7648 4.5211 19.7648C4.64954 19.7648 4.77798 19.7648 4.93211 19.7648C5.06055 19.7648 5.18899 19.7648 5.29174 19.7648C5.3945 19.7648 5.49725 19.7648 5.57431 19.7648C5.65138 19.7648 5.70275 19.7648 5.72844 19.7648C5.77982 19.7648 5.80551 19.7648 5.83119 19.7395C5.85688 19.7395 5.88257 19.7143 5.88257 19.6891C5.88257 19.6639 5.88257 19.6639 5.85688 19.6639C5.85688 19.6639 5.83119 19.6639 5.80551 19.6639C5.77982 19.6639 5.72844 19.6639 5.67706 19.6639C5.62569 19.6639 5.57431 19.6387 5.49725 19.6387C5.47156 19.6387 5.42018 19.6135 5.36881 19.5883C5.31743 19.5631 5.26606 19.5126 5.21468 19.4622C5.1633 19.4118 5.11193 19.311 5.03486 19.2101C4.9578 19.1093 4.90642 18.958 4.82936 18.8068C4.77798 18.6555 4.70092 18.479 4.62385 18.3026C4.54679 18.1261 4.46973 17.8992 4.36697 17.6723C4.26422 17.4454 4.18716 17.1933 4.0844 16.9664C3.98165 16.7143 3.90459 16.4874 3.80184 16.2353C3.69908 15.9832 3.62202 15.7563 3.54495 15.5295C3.46789 15.3026 3.39083 15.1261 3.31376 14.9496C3.2367 14.7732 3.18532 14.6219 3.13395 14.4958C3.08257 14.395 3.05688 14.3194 3.03119 14.269C3.0055 14.1933 2.97982 14.1429 2.95413 14.0925C2.92844 14.0673 2.92844 14.0169 2.90275 14.0169C2.87706 13.9664 2.87706 13.9664 2.85138 13.9664ZM2.02936 17.2942C2.00367 17.2942 2.00367 17.269 2.02936 17.2942C2.00367 17.269 2.00367 17.269 2.00367 17.2437L2.67156 15.2017C2.67156 15.1765 2.69725 15.1513 2.69725 15.1513C2.69725 15.1261 2.72294 15.1261 2.72294 15.1261C2.74862 15.1261 2.74862 15.1261 2.74862 15.1513C2.74862 15.1765 2.77431 15.1765 2.77431 15.2269L3.49358 17.269C3.49358 17.2942 3.49358 17.2942 3.49358 17.2942C3.49358 17.2942 3.49358 17.3194 3.46789 17.3194H2.02936V17.2942ZM7.65505 17.2185L8.32294 15.1765C8.34863 15.0757 8.4 15.0757 8.42569 15.1765L9.14495 17.2185L9.27339 17.5967L9.99266 19.4622C10.0183 19.5126 10.0183 19.5631 10.0183 19.6135C10.0183 19.6387 9.99266 19.6639 9.96697 19.6639C9.94129 19.6639 9.94129 19.6639 9.94129 19.6891C9.94129 19.7143 9.9156 19.7143 9.9156 19.7143C9.9156 19.7395 9.94129 19.7395 9.96697 19.7395C9.99266 19.7395 10.0697 19.7648 10.1468 19.7648C10.2752 19.7648 10.4037 19.7648 10.5578 19.7648C10.6862 19.7648 10.8147 19.7648 10.9174 19.7648C11.0202 19.7648 11.1229 19.7648 11.2 19.7648C11.2771 19.7648 11.3284 19.7648 11.3541 19.7648C11.4055 19.7648 11.4312 19.7648 11.4569 19.7395C11.4826 19.7395 11.5083 19.7143 11.5083 19.6891C11.5083 19.6639 11.5083 19.6639 11.4826 19.6639C11.4826 19.6639 11.4569 19.6639 11.4312 19.6639C11.4055 19.6639 11.3541 19.6639 11.3028 19.6639C11.2514 19.6639 11.2 19.6387 11.1229 19.6387C11.0972 19.6387 11.0459 19.6135 10.9945 19.5883C10.9431 19.5631 10.8917 19.5126 10.8404 19.4622C10.789 19.4118 10.7376 19.311 10.6606 19.2101C10.5835 19.1093 10.5321 18.958 10.455 18.8068C10.4037 18.6555 10.3266 18.479 10.2495 18.3026C10.1725 18.1261 10.0954 17.8992 9.99266 17.6723C9.88991 17.4454 9.81285 17.1933 9.71009 16.9664C9.60734 16.7143 9.53028 16.4874 9.42752 16.2353C9.32477 15.9832 9.24771 15.7563 9.17064 15.5295C9.09358 15.3026 9.01651 15.1261 8.93945 14.9496C8.86239 14.7732 8.81101 14.6219 8.75963 14.4958C8.70826 14.395 8.68257 14.3194 8.65688 14.269C8.63119 14.1933 8.60551 14.1429 8.57982 14.0925C8.55413 14.0673 8.55413 14.0169 8.52844 14.0169C8.50275 14.0169 8.50275 13.9916 8.47707 13.9916C8.45138 13.9916 8.45138 13.9916 8.42569 14.0169C8.42569 14.0421 8.4 14.0421 8.37431 14.0925C8.34862 14.1429 8.32294 14.1933 8.29725 14.269L6.55046 18.958C6.49908 19.0841 6.44771 19.2101 6.39633 19.2858C6.34495 19.3866 6.26789 19.4622 6.19083 19.5379C6.11376 19.5883 6.01101 19.6387 5.90826 19.6639C5.88257 19.6639 5.83119 19.6639 5.80551 19.6639C5.75413 19.6639 5.72844 19.6639 5.70275 19.6639C5.67706 19.6639 5.67706 19.6639 5.65138 19.6639C5.62569 19.6639 5.62569 19.6891 5.62569 19.6891C5.62569 19.7143 5.62569 19.7143 5.65138 19.7395C5.67706 19.7648 5.70275 19.7648 5.75413 19.7648C5.85688 19.7648 5.93395 19.7648 6.0367 19.7648C6.13945 19.7648 6.21651 19.7648 6.29358 19.7648C6.37064 19.7648 6.44771 19.7648 6.49908 19.7648C6.55046 19.7648 6.60184 19.7648 6.62752 19.7648C6.65321 19.7648 6.6789 19.7648 6.73028 19.7648C6.78165 19.7648 6.83303 19.7648 6.8844 19.7648C6.93578 19.7648 7.01284 19.7648 7.06422 19.7648C7.1156 19.7648 7.16697 19.7648 7.21835 19.7648C7.24404 19.7648 7.26973 19.7648 7.29541 19.7395C7.3211 19.7395 7.3211 19.7143 7.3211 19.6891C7.3211 19.6639 7.3211 19.6639 7.29541 19.6639C7.26973 19.6639 7.26973 19.6639 7.24404 19.6639H7.16697C7.1156 19.6639 7.06422 19.6639 7.03853 19.6387C6.98716 19.6135 6.96147 19.6135 6.93578 19.5631C6.91009 19.5379 6.8844 19.4874 6.8844 19.437C6.8844 19.3614 6.8844 19.2858 6.91009 19.2101C6.93578 19.1345 6.96147 19.0337 6.98716 18.9328L7.65505 17.2185ZM12.8697 16.2605V17.5967C12.8697 17.8488 12.8697 18.0757 12.8697 18.2774C12.8697 18.479 12.8697 18.6807 12.8697 18.832C12.8697 19.0084 12.844 19.1345 12.844 19.2353C12.844 19.311 12.8184 19.3614 12.8184 19.437C12.8184 19.5126 12.7927 19.5379 12.767 19.5883C12.7413 19.6135 12.6899 19.6639 12.6385 19.6639C12.5872 19.6639 12.5358 19.6639 12.5101 19.6639C12.4844 19.6639 12.433 19.6639 12.4073 19.6639C12.3817 19.6639 12.3817 19.6639 12.356 19.6891C12.3303 19.7143 12.3303 19.7143 12.3303 19.7143C12.3303 19.7395 12.3303 19.7395 12.356 19.7648C12.3817 19.79 12.4073 19.79 12.4587 19.79C12.5101 19.79 12.5872 19.79 12.6642 19.79C12.7413 19.79 12.8183 19.79 12.8954 19.79C12.9725 19.79 13.0495 19.79 13.1009 19.79C13.1523 19.79 13.2037 19.79 13.2037 19.79C13.2294 19.79 13.255 19.79 13.3064 19.79C13.3578 19.79 13.4349 19.79 13.5376 19.79C13.6147 19.79 13.7174 19.79 13.7945 19.8152C13.8716 19.8404 13.9743 19.8152 14.0514 19.8152C14.1284 19.8152 14.1798 19.8152 14.2312 19.8152C14.4881 19.8152 14.7193 19.79 14.9505 19.7143C15.156 19.6387 15.3358 19.5631 15.5156 19.4622C15.6697 19.3614 15.7982 19.2353 15.9009 19.0841C16.0037 18.9328 16.0807 18.8068 16.1321 18.6303C16.1835 18.4538 16.1835 18.3278 16.1835 18.1513C16.1835 17.9244 16.1578 17.7227 16.0807 17.5463C16.0037 17.3698 15.9266 17.2185 15.7982 17.1177C15.6697 16.9916 15.5413 16.8908 15.3872 16.8152C15.233 16.7395 15.0789 16.6891 14.9248 16.6387C14.7706 16.5883 14.5908 16.5631 14.4367 16.5379C14.2826 16.5126 14.1284 16.5126 14 16.5126C13.8716 16.5126 13.7431 16.5126 13.6661 16.4874C13.589 16.4622 13.5376 16.4874 13.5119 16.4622C13.4862 16.4622 13.4862 16.437 13.4862 16.437C13.4862 16.437 13.4606 16.4118 13.4606 16.3866V14.5967C13.4606 14.4706 13.4862 14.3698 13.5376 14.2942C13.589 14.2185 13.6404 14.1933 13.7431 14.1681C13.7945 14.1681 13.8202 14.1429 13.8459 14.1429C13.8716 14.1429 13.8972 14.1429 13.9229 14.1429C13.9486 14.1429 13.9486 14.1429 13.9743 14.1177L14 14.0925C14 14.0673 14 14.0673 13.9743 14.0421C13.9486 14.0169 13.9229 14.0169 13.8716 14.0169C13.8202 14.0169 13.7431 14.0169 13.6661 14.0169C13.589 14.0169 13.5119 14.0169 13.4349 14.0169C13.3578 14.0169 13.2807 14.0169 13.2294 14.0169C13.178 14.0169 13.1523 14.0169 13.1266 14.0169C13.1266 14.0169 13.0752 14.0169 13.0239 14.0169C12.9725 14.0169 12.8954 14.0169 12.8184 14.0169C12.7413 14.0169 12.6642 14.0169 12.5615 14.0169C12.4844 14.0169 12.4073 14.0169 12.3303 14.0169C12.3046 14.0169 12.2532 14.0169 12.2275 14.0421C12.2018 14.0421 12.2018 14.0673 12.2018 14.0925C12.2018 14.1177 12.2018 14.1177 12.2275 14.1177L12.2532 14.1429C12.2789 14.1429 12.3046 14.1429 12.356 14.1429C12.4073 14.1429 12.433 14.1429 12.4844 14.1681C12.5615 14.1933 12.6385 14.2185 12.6899 14.2942C12.7413 14.3698 12.767 14.4706 12.7927 14.5967L12.8697 16.2605ZM13.4862 16.8656C13.4862 16.8404 13.4862 16.8152 13.5119 16.79C13.5376 16.7647 13.5633 16.7648 13.589 16.7648C13.6917 16.7648 13.8202 16.7648 13.9229 16.7648C14.0257 16.7648 14.1028 16.7648 14.2055 16.7648C14.3083 16.7648 14.3853 16.79 14.4881 16.8152C14.5908 16.8404 14.6679 16.8908 14.7963 16.9664C14.9505 17.0673 15.0532 17.1681 15.156 17.2942C15.2587 17.4202 15.3358 17.5463 15.3872 17.6975C15.4385 17.8488 15.4899 17.9748 15.5156 18.1009C15.5413 18.2269 15.5413 18.353 15.5413 18.479C15.5413 18.6555 15.5156 18.8068 15.4642 18.9076C15.4128 19.0337 15.3615 19.1345 15.2844 19.2101C15.2073 19.2858 15.1046 19.3614 15.0275 19.3866C14.9248 19.437 14.8477 19.4622 14.745 19.4874C14.6422 19.5127 14.5651 19.5127 14.4881 19.5127C14.4367 19.5127 14.3853 19.5127 14.3083 19.5127C14.2312 19.5127 14.1541 19.4874 14.0514 19.4874C13.9743 19.4622 13.8716 19.437 13.8202 19.4118C13.7431 19.3866 13.6917 19.3362 13.6404 19.2858C13.6147 19.2353 13.589 19.1849 13.5633 19.1093C13.5633 19.0337 13.5376 18.9328 13.5376 18.8068C13.5376 18.7816 13.5376 18.7311 13.5376 18.6555C13.5376 18.5799 13.5376 18.479 13.5376 18.353C13.5376 18.2269 13.5376 18.1009 13.5376 17.9748C13.5376 17.8488 13.5376 17.6975 13.5376 17.5715C13.5376 17.4454 13.5376 17.3194 13.5376 17.1933V16.8656H13.4862ZM21.1927 17.3446C21.2184 17.3446 21.2183 17.3446 21.2183 17.3698C21.244 17.3698 21.244 17.395 21.244 17.4202V17.5967C21.244 17.8488 21.244 18.0757 21.244 18.2774C21.244 18.479 21.244 18.6807 21.244 18.832C21.244 19.0084 21.2183 19.1345 21.2183 19.2353C21.2183 19.311 21.1927 19.3614 21.1927 19.437C21.167 19.4874 21.1413 19.5379 21.1156 19.5883C21.0899 19.6387 21.0128 19.6639 20.9358 19.6639C20.9101 19.6639 20.8587 19.6639 20.8073 19.6891C20.756 19.6891 20.7303 19.6891 20.6789 19.6891C20.6275 19.6891 20.6018 19.6891 20.5761 19.6891C20.5505 19.6891 20.5505 19.6891 20.5248 19.7143C20.4991 19.7395 20.4991 19.7395 20.4991 19.7395C20.4991 19.7395 20.4991 19.7648 20.5248 19.79C20.5505 19.79 20.5761 19.8152 20.6275 19.8152C20.7303 19.8152 20.833 19.8152 20.9615 19.8152C21.0642 19.8152 21.167 19.8152 21.244 19.8152C21.3468 19.8152 21.4239 19.8152 21.4752 19.8152C21.5266 19.8152 21.578 19.8152 21.578 19.8152C21.578 19.8152 21.6037 19.8152 21.655 19.8152C21.7064 19.8152 21.7578 19.8152 21.8349 19.8152C21.9119 19.8152 21.989 19.8152 22.0661 19.8152C22.1431 19.8152 22.2202 19.8152 22.2716 19.8152C22.3229 19.8152 22.3486 19.8152 22.3743 19.79C22.4 19.79 22.4 19.7648 22.4 19.7395C22.4 19.7143 22.4 19.7143 22.3743 19.7143C22.3743 19.7143 22.3486 19.6891 22.3229 19.6891C22.2973 19.6891 22.2459 19.6891 22.2202 19.6891C22.1945 19.6891 22.1431 19.6639 22.1174 19.6639C22.0661 19.6639 22.0147 19.6387 22.0147 19.5883C21.989 19.5631 21.9633 19.5126 21.9376 19.437C21.9119 19.3614 21.9119 19.311 21.9119 19.2353C21.8862 19.1345 21.8862 18.9832 21.8862 18.832C21.8862 18.6807 21.8606 18.479 21.8606 18.2774C21.8606 18.0757 21.8606 17.8488 21.8606 17.5967V16.2605C21.8606 16.0337 21.8606 15.832 21.8606 15.6555C21.8606 15.479 21.8606 15.353 21.8606 15.2521C21.8606 15.1513 21.8606 15.0505 21.8606 14.9748C21.8606 14.8992 21.8606 14.8488 21.8606 14.7984C21.8606 14.7479 21.8606 14.6975 21.8606 14.6471C21.8606 14.5715 21.8862 14.4958 21.8862 14.4454C21.9119 14.395 21.9376 14.3446 21.989 14.2942C22.0404 14.269 22.0917 14.2437 22.1688 14.2185C22.1945 14.2185 22.2202 14.2185 22.2459 14.1933C22.2716 14.1933 22.3229 14.1933 22.3486 14.1933C22.3743 14.1933 22.4 14.1933 22.4257 14.1933C22.4514 14.1933 22.4514 14.1933 22.4771 14.1681L22.5028 14.1429C22.5028 14.1177 22.5028 14.1177 22.4771 14.0925C22.4514 14.0673 22.4257 14.0673 22.3743 14.0673C22.2972 14.0673 22.1945 14.0673 22.0917 14.0673C21.989 14.0673 21.9119 14.0673 21.8349 14.0673C21.7321 14.0673 21.6807 14.0673 21.6294 14.0673C21.578 14.0673 21.5266 14.0673 21.5266 14.0673C21.5266 14.0673 21.4752 14.0673 21.4239 14.0673C21.3725 14.0673 21.2954 14.0673 21.2183 14.0421C21.1413 14.0421 21.0385 14.0169 20.9615 14.0169C20.8844 14.0169 20.7817 13.9916 20.7046 13.9916C20.6275 13.9916 20.5761 13.9916 20.5248 13.9916C20.345 13.9916 20.1651 14.0169 19.9596 14.0421C19.7798 14.0673 19.6 14.1429 19.4202 14.2185C19.2404 14.2942 19.1119 14.395 18.9578 14.5211C18.8294 14.6471 18.7266 14.7984 18.6495 15C18.5725 15.2017 18.5468 15.4034 18.5468 15.6303C18.5468 15.7563 18.5725 15.9076 18.6239 16.0589C18.6752 16.2101 18.7523 16.3362 18.855 16.4622C18.9578 16.5883 19.0606 16.7143 19.2147 16.8152C19.3688 16.916 19.4972 17.0169 19.6771 17.0673C19.5229 17.3194 19.3945 17.5715 19.2404 17.8236C19.0862 18.0505 18.9578 18.2774 18.8037 18.479C18.6495 18.6807 18.5211 18.8824 18.3927 19.0337C18.2642 19.1849 18.1358 19.2858 18.0073 19.3614C17.8789 19.437 17.8018 19.4874 17.6991 19.5379C17.5963 19.5631 17.5193 19.5883 17.4679 19.5883C17.3908 19.5883 17.3395 19.6135 17.3138 19.6135C17.2881 19.6135 17.2624 19.6135 17.2367 19.6135C17.211 19.6135 17.211 19.6135 17.1853 19.6387C17.1596 19.6387 17.1596 19.6639 17.1596 19.6639C17.1596 19.6891 17.1853 19.6891 17.1853 19.7143C17.211 19.7395 17.2624 19.7395 17.3395 19.7395H17.8275C17.9817 19.7395 18.0844 19.7395 18.1872 19.7395C18.2899 19.7143 18.367 19.7143 18.444 19.6891C18.5211 19.6639 18.5982 19.6387 18.6495 19.6135C18.7523 19.5379 18.855 19.437 18.9835 19.3362C19.1119 19.2353 19.189 19.0841 19.3174 18.9328C19.4202 18.7816 19.5486 18.6051 19.6771 18.4034L20.345 17.3446H21.1927ZM21.244 14.4958V16.8656C21.2183 16.9412 21.167 16.9916 21.1413 17.0169C21.1156 17.0421 21.0642 17.0673 20.9872 17.0925C20.9358 17.0925 20.833 17.0925 20.7303 17.0925C20.5248 17.0925 20.3193 17.0421 20.1395 16.9664C19.9596 16.8908 19.8055 16.79 19.6514 16.6387C19.5229 16.4874 19.3945 16.311 19.3174 16.1345C19.2404 15.9328 19.2147 15.7059 19.2147 15.479C19.2147 15.2774 19.2404 15.1009 19.2917 14.9748C19.3431 14.8488 19.3945 14.7227 19.4972 14.6471C19.5743 14.5715 19.6771 14.4958 19.7541 14.4454C19.8312 14.395 19.9596 14.3698 20.0624 14.3446C20.1651 14.3194 20.2422 14.3194 20.3193 14.3194C20.3706 14.3194 20.4477 14.3194 20.5248 14.3446C20.6018 14.3698 20.7046 14.3698 20.7817 14.3698C20.8587 14.395 20.9358 14.395 21.0128 14.395C21.0899 14.4202 21.1156 14.4202 21.1413 14.4202C21.167 14.4202 21.167 14.4454 21.1927 14.4454C21.2184 14.4454 21.244 14.4706 21.244 14.4958ZM29.4128 16.2605C29.4128 16.0337 29.4128 15.832 29.4128 15.6555C29.4128 15.479 29.4128 15.353 29.4128 15.2521C29.4128 15.1513 29.4128 15.0505 29.4128 14.9748C29.4128 14.8992 29.4128 14.8488 29.4128 14.7984C29.4128 14.7479 29.4128 14.6975 29.4128 14.6471C29.4128 14.5211 29.4385 14.4202 29.4899 14.3446C29.5413 14.269 29.5927 14.2437 29.6954 14.2185C29.7468 14.2185 29.7725 14.1933 29.7982 14.1933C29.8239 14.1933 29.8495 14.1933 29.8752 14.1933C29.9009 14.1933 29.9009 14.1933 29.9266 14.1681L29.9523 14.1429C29.9523 14.1177 29.9523 14.1177 29.9266 14.0925C29.9009 14.0673 29.8752 14.0673 29.8239 14.0673C29.7725 14.0673 29.6954 14.0673 29.6184 14.0673C29.5413 14.0673 29.4642 14.0673 29.3872 14.0673C29.3101 14.0673 29.233 14.0673 29.1817 14.0673C29.1303 14.0673 29.1046 14.0673 29.0789 14.0673C29.0789 14.0673 29.0275 14.0673 28.9762 14.0673C28.9248 14.0673 28.8477 14.0673 28.7706 14.0673C28.6679 14.0673 28.5908 14.0673 28.4881 14.0673C28.3853 14.0673 28.3083 14.0673 28.2055 14.0673C28.1798 14.0673 28.1284 14.0673 28.1028 14.0925C28.0771 14.0925 28.0771 14.1177 28.0771 14.1429C28.0771 14.1681 28.0771 14.1681 28.1028 14.1681L28.1284 14.1933C28.1541 14.1933 28.1798 14.1933 28.2055 14.1933C28.2312 14.1933 28.2826 14.1933 28.3083 14.1933C28.3339 14.1933 28.3596 14.1933 28.3853 14.2185C28.4624 14.2437 28.5395 14.269 28.5651 14.2942C28.6165 14.3194 28.6422 14.3698 28.6679 14.4454C28.6936 14.4958 28.6936 14.5715 28.6936 14.6471C28.6936 14.6975 28.6936 14.7479 28.6936 14.7984C28.6936 14.8488 28.6936 14.9244 28.6936 15C28.6936 15.0757 28.6936 15.1765 28.6936 15.3026C28.6936 15.4286 28.6936 15.5547 28.6936 15.7311C28.6936 15.9076 28.6936 16.1093 28.6936 16.3362V16.4874C28.6936 16.5126 28.6936 16.5126 28.6679 16.5126C28.6422 16.5126 28.6422 16.5126 28.6422 16.5126H25.4569H25.4312L25.4055 16.4874V16.3362C25.4055 16.1093 25.4055 15.9076 25.4055 15.7311C25.4055 15.5547 25.4055 15.4286 25.4055 15.3026C25.4055 15.1765 25.4055 15.0757 25.4055 15C25.4055 14.9244 25.4055 14.8488 25.4055 14.7984C25.4055 14.7479 25.4055 14.6975 25.4055 14.6471C25.4055 14.5211 25.4312 14.4202 25.4826 14.3446C25.5339 14.269 25.5853 14.2437 25.6881 14.2185C25.7395 14.2185 25.7651 14.1933 25.7908 14.1933C25.8165 14.1933 25.8422 14.1933 25.8679 14.1933C25.8936 14.1933 25.8936 14.1933 25.9193 14.1681L25.945 14.1429C25.945 14.1177 25.945 14.1177 25.9193 14.0925C25.8936 14.0673 25.8679 14.0673 25.8165 14.0673C25.7651 14.0673 25.6881 14.0673 25.611 14.0673C25.5339 14.0673 25.4569 14.0673 25.3798 14.0673C25.3028 14.0673 25.2257 14.0673 25.1743 14.0673C25.1229 14.0673 25.0972 14.0673 25.0716 14.0673C25.0716 14.0673 25.0202 14.0673 24.9688 14.0673C24.9174 14.0673 24.8404 14.0673 24.7633 14.0673C24.6606 14.0673 24.5835 14.0673 24.4807 14.0673C24.378 14.0673 24.3009 14.0673 24.1982 14.0673C24.1725 14.0673 24.1211 14.0673 24.0954 14.0925C24.0697 14.0925 24.0697 14.1177 24.0697 14.1429C24.0697 14.1681 24.0697 14.1681 24.0954 14.1681L24.1211 14.1933C24.1468 14.1933 24.1725 14.1933 24.1982 14.1933C24.2239 14.1933 24.2752 14.1933 24.3009 14.1933C24.3266 14.1933 24.3523 14.1933 24.378 14.2185C24.455 14.2437 24.5321 14.269 24.5578 14.2942C24.6092 14.3194 24.6349 14.3698 24.6606 14.4454C24.6862 14.4958 24.6862 14.5715 24.6862 14.6471C24.6862 14.6975 24.6862 14.7479 24.6862 14.7984C24.6862 14.8488 24.6862 14.8992 24.6862 14.9748C24.6862 15.0505 24.6862 15.1513 24.6862 15.2521C24.6862 15.353 24.6862 15.5042 24.6862 15.6555C24.6862 15.8068 24.6862 16.0084 24.6862 16.2605V17.5967C24.6862 17.8488 24.6862 18.0757 24.6862 18.2774C24.6862 18.479 24.6862 18.6807 24.6862 18.832C24.6862 19.0084 24.6606 19.1345 24.6606 19.2353C24.6606 19.311 24.6349 19.3614 24.6349 19.437C24.6349 19.5126 24.6092 19.5379 24.5835 19.5883C24.5578 19.6135 24.5064 19.6639 24.455 19.6639C24.4294 19.6639 24.378 19.6891 24.3523 19.6891C24.3266 19.6891 24.2752 19.6891 24.2495 19.6891C24.2239 19.6891 24.2239 19.6891 24.1982 19.7143C24.1725 19.7395 24.1725 19.7395 24.1725 19.7395C24.1725 19.7648 24.1725 19.7648 24.1982 19.79C24.2239 19.8152 24.2495 19.8152 24.3009 19.8152C24.3523 19.8152 24.4294 19.8152 24.5064 19.8152C24.5835 19.8152 24.6606 19.8152 24.7376 19.8152C24.8147 19.8152 24.8917 19.8152 24.9431 19.8152C24.9945 19.8152 25.0459 19.8152 25.0459 19.8152C25.0716 19.8152 25.0972 19.8152 25.1486 19.8152C25.2 19.8152 25.2771 19.8152 25.3798 19.8152C25.4826 19.8152 25.5596 19.8152 25.6624 19.8152C25.7651 19.8152 25.8679 19.8152 25.9963 19.8152C26.0477 19.8152 26.0734 19.8152 26.0991 19.79C26.1248 19.7648 26.1248 19.7648 26.1248 19.7395C26.1248 19.7143 26.1248 19.7143 26.0991 19.7143C26.0991 19.7143 26.0734 19.6891 26.0477 19.6891C26.022 19.6891 25.9963 19.6891 25.945 19.6891C25.8936 19.6891 25.8679 19.6891 25.8165 19.6891C25.7651 19.6891 25.7395 19.6891 25.6881 19.6639C25.611 19.6639 25.5596 19.6387 25.5083 19.5883C25.4826 19.5631 25.4312 19.5126 25.4312 19.437C25.4312 19.3614 25.4055 19.311 25.4055 19.2353C25.3798 19.1345 25.3798 18.9832 25.3798 18.832C25.3798 18.6807 25.3541 18.479 25.3541 18.2774C25.3541 18.0757 25.3541 17.8488 25.3541 17.5967V16.8908C25.3541 16.8656 25.3541 16.8656 25.3798 16.8656C25.4055 16.8656 25.4055 16.8656 25.4055 16.8656H28.6679C28.6936 16.8656 28.6936 16.8656 28.6936 16.8656L28.7193 16.8908V17.5967C28.7193 17.8488 28.7193 18.0757 28.7193 18.2774C28.7193 18.479 28.7193 18.6807 28.7193 18.832C28.7193 19.0084 28.6936 19.1345 28.6936 19.2353C28.6936 19.311 28.6679 19.3614 28.6679 19.437C28.6679 19.5126 28.6422 19.5379 28.6165 19.5883C28.5908 19.6135 28.5395 19.6639 28.4881 19.6639C28.4624 19.6639 28.411 19.6891 28.3853 19.6891C28.3596 19.6891 28.3083 19.6891 28.2826 19.6891C28.2569 19.6891 28.2569 19.6891 28.2312 19.7143C28.2055 19.7395 28.2055 19.7395 28.2055 19.7395C28.2055 19.7648 28.2055 19.7648 28.2312 19.79C28.2569 19.8152 28.2826 19.8152 28.3339 19.8152C28.3853 19.8152 28.4624 19.8152 28.5395 19.8152C28.6165 19.8152 28.6936 19.8152 28.7706 19.8152C28.8477 19.8152 28.9248 19.8152 28.9762 19.8152C29.0275 19.8152 29.0789 19.8152 29.0789 19.8152C29.1046 19.8152 29.1303 19.8152 29.1817 19.8152C29.233 19.8152 29.3101 19.8152 29.4128 19.8152C29.5156 19.8152 29.5927 19.8152 29.6954 19.8152C29.7982 19.8152 29.9009 19.8152 30.0294 19.8152C30.0807 19.8152 30.1064 19.8152 30.1321 19.79C30.1578 19.7648 30.1578 19.7648 30.1578 19.7395C30.1578 19.7143 30.1578 19.7143 30.1321 19.7143C30.1321 19.7143 30.1064 19.6891 30.0807 19.6891C30.055 19.6891 30.0294 19.6891 29.978 19.6891C29.9266 19.6891 29.9009 19.6891 29.8495 19.6891C29.7982 19.6891 29.7725 19.6891 29.7211 19.6639C29.644 19.6639 29.5927 19.6387 29.5413 19.5883C29.5156 19.5631 29.4642 19.5126 29.4642 19.437C29.4642 19.3614 29.4385 19.311 29.4385 19.2353C29.4128 19.1345 29.4128 18.9832 29.4128 18.832C29.4128 18.6807 29.3872 18.479 29.3872 18.2774C29.3872 18.0757 29.3872 17.8488 29.3872 17.5967V16.2605H29.4128ZM35.0128 19.8908C35.1413 19.8908 35.2697 19.8908 35.3982 19.8908C35.5266 19.8908 35.6551 19.8656 35.7835 19.8656C35.9119 19.8404 36.0147 19.8404 36.1174 19.8152C36.2202 19.79 36.3229 19.7648 36.4 19.7395C36.4514 19.7143 36.4771 19.7143 36.5028 19.6891C36.5284 19.6639 36.5541 19.6639 36.5541 19.6387C36.5541 19.6135 36.5798 19.5883 36.5798 19.5379C36.6055 19.4874 36.6055 19.4118 36.6312 19.3362C36.6569 19.2605 36.6569 19.1849 36.6826 19.0841C36.7083 18.9832 36.7083 18.9076 36.7083 18.832C36.7339 18.7563 36.7339 18.7059 36.7339 18.6555C36.7339 18.6051 36.7339 18.5547 36.7339 18.5547C36.7339 18.5295 36.7339 18.5042 36.7083 18.479C36.7083 18.4538 36.6826 18.4538 36.6826 18.4538C36.6826 18.4538 36.6569 18.4538 36.6312 18.479C36.6055 18.5042 36.6055 18.5295 36.6055 18.5799C36.6055 18.6051 36.5798 18.6555 36.5798 18.7059C36.5541 18.7563 36.5541 18.8068 36.5284 18.8824C36.5028 18.958 36.4771 19.0084 36.4514 19.0589C36.4257 19.1093 36.3743 19.1597 36.3486 19.2101C36.2459 19.311 36.1174 19.3866 35.989 19.437C35.8606 19.4874 35.7064 19.5379 35.5523 19.5379C35.3725 19.5631 35.2184 19.5631 35.0128 19.5631C34.6789 19.5631 34.3706 19.5126 34.0881 19.4118C33.8055 19.311 33.5486 19.1849 33.3174 19.0084C33.0862 18.832 32.9064 18.6303 32.7266 18.4034C32.5468 18.1765 32.444 17.9244 32.3413 17.6471C32.2385 17.3698 32.2128 17.0925 32.2128 16.8152C32.2128 16.5379 32.2385 16.2858 32.2899 16.0337C32.3413 15.7816 32.4184 15.5547 32.5211 15.353C32.6239 15.1513 32.778 14.9496 32.9578 14.7984C33.1376 14.6471 33.3688 14.5211 33.6771 14.4454C33.9596 14.3446 34.2936 14.3194 34.7046 14.3194C34.8844 14.3194 35.0899 14.3446 35.2697 14.3446C35.4495 14.3698 35.6294 14.4202 35.7835 14.4706C35.9376 14.5211 36.0917 14.5967 36.1945 14.6975C36.2972 14.7984 36.4 14.8992 36.4771 15.0253C36.5541 15.1513 36.5798 15.3278 36.5798 15.5042C36.5798 15.5547 36.5798 15.6051 36.5798 15.6303C36.5798 15.6555 36.6055 15.6555 36.6312 15.6555C36.6569 15.6555 36.6569 15.6303 36.6826 15.6051C36.7083 15.5799 36.7083 15.5295 36.7083 15.4538C36.7083 15.3782 36.7083 15.2774 36.7083 15.1765C36.7083 15.0253 36.7083 14.8992 36.7339 14.7732C36.7596 14.6471 36.7596 14.5463 36.7596 14.4706C36.7596 14.395 36.7853 14.3446 36.7853 14.2942C36.7853 14.269 36.7853 14.2437 36.7596 14.2437C36.734 14.2185 36.7083 14.2185 36.6826 14.2185C36.6055 14.2185 36.5028 14.1933 36.4 14.1933C36.2716 14.1681 36.1431 14.1429 35.989 14.1177C35.8349 14.0925 35.655 14.0673 35.4495 14.0421C35.244 14.0169 35.0385 14.0169 34.8073 14.0169C34.3963 14.0169 34.0367 14.0673 33.7284 14.1429C33.3945 14.2185 33.1376 14.3446 32.9064 14.4958C32.6752 14.6471 32.4697 14.8236 32.2899 15C32.1358 15.1765 32.0073 15.4034 31.9046 15.6051C31.8018 15.832 31.7248 16.0337 31.6734 16.2605C31.622 16.4874 31.5963 16.6891 31.5963 16.8908C31.5963 17.2437 31.6477 17.5715 31.7248 17.874C31.8018 18.1765 31.956 18.4538 32.1358 18.7059C32.3156 18.958 32.5468 19.1849 32.8294 19.3614C33.1119 19.5379 33.4202 19.6891 33.8055 19.79C34.1908 19.8908 34.5505 19.8908 35.0128 19.8908Z" fill="#2B5D84"/>
<path d="M39.534 17.3446H37.8643V16.8908H39.534V15.2269H40.0477V16.8908H41.7175V17.3446H40.0477V19.0084H39.534V17.3446Z" fill="#2B5D84"/>
<path d="M1.46418 23.3697V21.9328L0.513717 23.3697H0.256836V21.6807H0.46234V23.1176L1.4128 21.6807H1.66968V23.3697H1.46418Z" fill="#6290CC"/>
<path d="M3.95606 23.3697V22.5882H2.97992V23.3697H2.77441V21.6807H2.97992V22.3865H3.95606V21.6807H4.16157V23.3697H3.95606Z" fill="#6290CC"/>
<path d="M5.93364 21.8571V23.3697H5.72814V21.8571H5.08594V21.6807H6.57585V21.8571H5.93364Z" fill="#6290CC"/>
<path d="M8.19477 23.4202C7.70669 23.4202 7.39844 23.0672 7.39844 22.5378C7.39844 22.0084 7.73238 21.6302 8.19477 21.6302C8.70853 21.6302 8.93972 22.0336 8.93972 22.5126V22.563H7.60394C7.60394 22.916 7.75807 23.2437 8.19477 23.2437C8.47734 23.2437 8.65715 23.0924 8.70853 22.7899H8.91403C8.83697 23.1681 8.58009 23.4202 8.19477 23.4202ZM8.16908 21.8067C7.78376 21.8067 7.65532 22.084 7.60394 22.4118H8.73422C8.70853 22.0336 8.50302 21.8067 8.16908 21.8067Z" fill="#6290CC"/>
<path d="M10.1469 22.0084C10.2754 21.7563 10.4809 21.6302 10.7634 21.6302C11.2258 21.6302 11.5341 21.9832 11.5341 22.5378C11.5341 23.0672 11.2258 23.4202 10.7634 23.4202C10.4809 23.4202 10.2754 23.2941 10.1469 23.0672V24H9.94141V21.6807H10.1212V22.0084H10.1469ZM10.1469 22.5126C10.1469 22.9664 10.3781 23.2185 10.7377 23.2185C11.0974 23.2185 11.3286 22.9412 11.3286 22.5126C11.3286 22.0588 11.0974 21.7815 10.7377 21.7815C10.3781 21.7815 10.1469 22.0588 10.1469 22.5126Z" fill="#6290CC"/>
<path d="M13.7686 23.3697V22.5882H12.7924V23.3697H12.5869V21.6807H12.7924V22.3865H13.7686V21.6807H13.9741V23.3697H13.7686Z" fill="#6290CC"/>
<path d="M15.7729 23.4202C15.2848 23.4202 14.9766 23.0672 14.9766 22.5378C14.9766 22.0084 15.3105 21.6302 15.7729 21.6302C16.2867 21.6302 16.5178 22.0336 16.5178 22.5126V22.563H15.1821C15.1821 22.916 15.3362 23.2437 15.7729 23.2437C16.0555 23.2437 16.2353 23.0924 16.2867 22.7899H16.4922C16.4408 23.1681 16.1839 23.4202 15.7729 23.4202ZM15.7729 21.8067C15.3876 21.8067 15.2591 22.084 15.2078 22.4118H16.3123C16.3123 22.0336 16.0812 21.8067 15.7729 21.8067Z" fill="#6290CC"/>
<path d="M18.1876 21.8571V23.3697H17.982V21.8571H17.3398V21.6807H18.8298V21.8571H18.1876Z" fill="#6290CC"/>
<path d="M20.5762 22.563H19.7285V22.3613H20.5762V22.563Z" fill="#6290CC"/>
<path d="M23.1965 23.3445C23.1451 23.3697 23.0937 23.3697 23.0167 23.3697C22.8112 23.3697 22.7855 23.2185 22.7855 23.0672C22.657 23.2941 22.4258 23.395 22.1433 23.395C21.7836 23.395 21.5781 23.2185 21.5781 22.916C21.5781 22.6134 21.7836 22.437 22.2203 22.3866C22.5029 22.3613 22.6313 22.3613 22.7341 22.2857C22.7855 22.2605 22.7855 22.2101 22.7855 22.1345C22.7855 21.8571 22.6056 21.7815 22.3488 21.7815C22.0662 21.7815 21.9121 21.9076 21.8864 22.1849H21.6809C21.7066 21.8319 21.9378 21.6302 22.3745 21.6302C22.7598 21.6302 23.0167 21.8067 23.0167 22.1092V23.0168C23.0167 23.1176 23.0167 23.1933 23.1194 23.1933C23.1451 23.1933 23.1708 23.1933 23.1965 23.1933V23.3445ZM22.3231 22.563C22.1176 22.5882 21.8093 22.6387 21.8093 22.916C21.8093 23.1176 21.9634 23.2437 22.1946 23.2437C22.5029 23.2437 22.7855 23.042 22.7855 22.7143V22.437C22.7341 22.5126 22.5543 22.5378 22.3231 22.563Z" fill="#6290CC"/>
<path d="M24.3784 21.8571V23.3697H24.1729V21.6807H25.3031V21.8571H24.3784Z" fill="#6290CC"/>
<path d="M26.895 23.4202C26.4069 23.4202 26.0986 23.0672 26.0986 22.5378C26.0986 22.0084 26.4326 21.6302 26.895 21.6302C27.4087 21.6302 27.6399 22.0336 27.6399 22.5126V22.563H26.3041C26.3041 22.916 26.484 23.2437 26.895 23.2437C27.1775 23.2437 27.3573 23.0924 27.4087 22.7899H27.6142C27.5629 23.1681 27.306 23.4202 26.895 23.4202ZM26.8693 21.8067C26.484 21.8067 26.3555 22.084 26.3041 22.4118H27.4087C27.4087 22.0336 27.2032 21.8067 26.8693 21.8067Z" fill="#6290CC"/>
<path d="M29.8242 23.3697V22.5882H28.8481V23.3697H28.6426V21.6807H28.8481V22.3865H29.8242V21.6807H30.0297V23.3697H29.8242Z" fill="#6290CC"/>
<path d="M31.8018 21.8571V23.3697H31.5963V21.8571H30.9541V21.6807H32.444V21.8571H31.8018Z" fill="#6290CC"/>
<path d="M34.062 23.4202C33.5739 23.4202 33.2656 23.0672 33.2656 22.5378C33.2656 21.9832 33.5739 21.6302 34.062 21.6302C34.4473 21.6302 34.7298 21.8571 34.7555 22.2101H34.55C34.4987 21.9328 34.3188 21.8067 34.062 21.8067C33.7023 21.8067 33.4711 22.084 33.4711 22.5378C33.4711 22.9916 33.7023 23.2689 34.0363 23.2689C34.3188 23.2689 34.5243 23.0924 34.55 22.7899H34.7555C34.7298 23.1429 34.4987 23.4202 34.062 23.4202Z" fill="#6290CC"/>
<path d="M36.4512 21.8571V23.3697H36.2457V21.8571H35.6035V21.6807H37.0934V21.8571H36.4512Z" fill="#6290CC"/>
<path d="M38.8149 23.3697H38.0186V21.6807H38.8149C39.1745 21.6807 39.3543 21.8319 39.3543 22.084C39.3543 22.2857 39.2516 22.4118 39.0461 22.4622C39.2773 22.5126 39.4057 22.6387 39.4057 22.8908C39.4314 23.1933 39.2002 23.3697 38.8149 23.3697ZM38.7892 21.8571H38.2241V22.4118H38.7892C39.0204 22.4118 39.1488 22.3109 39.1488 22.1344C39.1488 21.9328 39.0461 21.8571 38.7892 21.8571ZM38.7892 22.563H38.2241V23.1933H38.7892C39.0718 23.1933 39.2259 23.0924 39.2259 22.8655C39.2259 22.6639 39.0718 22.563 38.7892 22.563Z" fill="#6290CC"/>
<path d="M42.0002 22.5126C42.0002 23.0672 41.6919 23.395 41.2039 23.395C40.6901 23.395 40.3818 23.042 40.3818 22.5126C40.3818 21.9832 40.6901 21.6302 41.2039 21.6302C41.6919 21.6302 42.0002 21.9832 42.0002 22.5126ZM40.5873 22.5126C40.5873 22.9664 40.8185 23.2437 41.2039 23.2437C41.5635 23.2437 41.7947 22.9664 41.7947 22.5378C41.7947 22.1092 41.5635 21.8067 41.2039 21.8067C40.8185 21.8067 40.5873 22.084 40.5873 22.5126Z" fill="#6290CC"/>
</g>
<defs>
<clipPath id="clip0">
<rect width="42" height="24" fill="white"/>
</clipPath>
</defs>
</svg>
