<svg width="22" height="20" viewBox="0 0 22 20" fill="none" xmlns="http://www.w3.org/2000/svg">
<g clip-path="url(#clip0)">
<path d="M15.9243 4.40231e-10C12.7402 -3.90621e-05 10.1543 2.59949 10.1704 5.78356C10.1776 7.22883 10.7179 8.54797 11.6045 9.5548C11.6896 9.65141 11.7109 9.78918 11.655 9.90516C11.4307 10.3712 11.1768 10.7226 11.0052 10.9333C10.9102 11.05 10.9809 11.2257 11.13 11.2454C11.7943 11.3332 12.6014 10.9999 12.9495 10.8355C13.0408 10.7923 13.1468 10.7951 13.236 10.8423C14.0175 11.2561 14.9057 11.4954 15.8486 11.5075C18.9849 11.5479 21.6376 8.96555 21.6777 5.82926C21.7188 2.61695 19.1272 3.90629e-05 15.9243 4.40232e-10V4.40231e-10Z" fill="#F15F5F"/>
<path d="M11.0054 10.9332C10.9103 11.05 10.9808 11.2257 11.1299 11.2454C11.4469 11.2871 11.7959 11.233 12.1125 11.1475C12.099 11.1463 12.0855 11.1446 12.072 11.143C11.9229 11.1233 11.8524 10.9476 11.9474 10.8309C12.1187 10.6203 12.3726 10.2689 12.5971 9.80277C12.6528 9.68688 12.6315 9.54883 12.5467 9.45215C11.6599 8.44535 11.1196 7.12645 11.1122 5.68102C11.0983 2.8716 13.1099 0.516836 15.771 0.00195312C12.6572 0.0838672 10.1546 2.65082 10.1702 5.7834C10.1776 7.22887 10.7178 8.54777 11.6046 9.55453C11.6894 9.65121 11.7107 9.78922 11.655 9.90516C11.4305 10.3713 11.1766 10.7227 11.0054 10.9332Z" fill="#DE3131"/>
<path d="M12.9456 6.52969C12.5156 6.52969 12.1671 6.18114 12.1671 5.75117C12.1671 5.32121 12.5156 4.97266 12.9456 4.97266C13.3756 4.97266 13.7241 5.32121 13.7241 5.75117C13.7241 6.18114 13.3756 6.52969 12.9456 6.52969Z" fill="#FFEEE7"/>
<path d="M15.9241 6.52969C15.4942 6.52969 15.1456 6.18114 15.1456 5.75117C15.1456 5.32121 15.4942 4.97266 15.9241 4.97266C16.3541 4.97266 16.7026 5.32121 16.7026 5.75117C16.7026 6.18114 16.3541 6.52969 15.9241 6.52969Z" fill="#FFEEE7"/>
<path d="M18.9026 6.52969C18.4727 6.52969 18.1241 6.18114 18.1241 5.75117C18.1241 5.32121 18.4727 4.97266 18.9026 4.97266C19.3326 4.97266 19.6812 5.32121 19.6812 5.75117C19.6812 6.18114 19.3326 6.52969 18.9026 6.52969Z" fill="#FFEEE7"/>
<path d="M0.692375 4.09341C1.00105 3.35598 1.48991 2.69341 2.12117 2.20239C2.80659 1.66927 3.7871 1.06778 4.6812 1.45981C4.92788 1.56798 5.12839 1.74145 5.2839 1.95552C5.39066 2.10083 5.47628 2.26606 5.54285 2.44813C5.5571 2.4868 6.13996 4.33309 6.35613 5.23219C6.5007 5.83419 6.39124 6.24954 6.00644 6.57786C5.88613 6.68059 5.73917 6.77485 5.56421 6.8636C5.15023 7.07352 4.72019 7.24977 4.28871 7.42391C4.22851 7.44821 4.16831 7.47243 4.1082 7.49669L3.60117 7.68887L3.78765 8.22106C4.78687 11.0189 6.35394 13.4488 8.49878 15.5041L8.8498 15.8804L9.29406 15.4582C9.62996 15.102 9.95679 14.7277 10.3393 14.4271C11.0137 13.8968 11.544 13.8659 12.2263 14.3816C13.0279 14.9875 13.8189 15.6231 14.5262 16.3338C15.3076 17.1191 15.253 17.871 14.4868 18.674C13.8232 19.3695 13.0007 19.7702 12.0599 19.9404C10.8464 20.16 9.46886 19.747 8.40761 19.1291C7.48832 18.5939 6.65355 17.9927 5.89765 17.3307L4.83874 16.3105C2.94851 14.3072 1.64616 11.8541 0.808392 9.06399C0.342337 7.51169 0.0512037 5.6252 0.692375 4.09341Z" fill="#D3D3D3"/>
<path d="M3.60124 7.68885C2.9994 5.94788 2.46366 4.11838 2.00811 2.29331C2.0451 2.26213 2.08315 2.23198 2.12124 2.20241C2.73807 1.72565 3.5669 1.2092 4.37983 1.36569C5.00725 1.4862 5.40155 1.98096 5.58288 2.56553C5.85667 3.44983 6.13999 4.33311 6.3562 5.23221C6.54596 6.02245 6.29858 6.49127 5.5644 6.86338C5.09291 7.10284 4.5992 7.29893 4.10819 7.49663L3.60124 7.68885Z" fill="#ADADAD"/>
<path d="M8.84987 15.8804C9.46741 16.5111 10.1177 17.1274 10.793 17.7372C11.5399 18.4111 12.2498 19.0195 13.1155 19.6274C13.6251 19.408 14.085 19.0951 14.4867 18.6738C15.2531 17.8709 15.3075 17.1193 14.5263 16.3338C13.8191 15.6229 13.0278 14.9875 12.2265 14.3818C11.5441 13.8659 11.0139 13.8971 10.3395 14.4273C9.95679 14.728 9.63015 15.1022 9.29397 15.458L8.84987 15.8804Z" fill="#ADADAD"/>
<path d="M0.808338 9.06387C2.09576 13.3511 4.47955 16.8421 8.40764 19.1291C9.46877 19.7472 10.8463 20.16 12.06 19.9404C13.0008 19.7702 13.8231 19.3696 14.4869 18.6739C14.8046 18.3407 15.0003 18.0164 15.064 17.6949C15.0468 17.7138 15.0288 17.7331 15.0107 17.7519C14.3469 18.4476 13.5246 18.8482 12.5838 19.0184C11.3701 19.238 9.9926 18.8252 8.93146 18.2071C5.00338 15.9201 2.61963 12.4291 1.33217 8.14188C0.866151 6.58958 0.574862 4.70329 1.21607 3.17153C1.22447 3.15184 1.23283 3.13215 1.24162 3.11243C1.02748 3.4054 0.843495 3.73184 0.692206 4.09352C0.051034 5.62528 0.342322 7.51161 0.808338 9.06387Z" fill="#C0C0C0"/>
<path d="M12.5838 19.0183C13.5247 18.8482 14.3469 18.4475 15.0107 17.7518C15.0287 17.7329 15.0468 17.7137 15.064 17.6948C15.0635 17.6965 15.0631 17.6982 15.0627 17.6999C15.0598 17.7145 15.0569 17.7296 15.0531 17.7443C15.0363 17.8095 15.0143 17.8733 14.9892 17.9358C14.9388 18.0612 14.8766 18.1775 14.8008 18.2895C14.7275 18.3978 14.6459 18.5003 14.5586 18.5975C14.4663 18.7003 14.3681 18.7976 14.2655 18.89C14.0789 19.0579 13.8813 19.2083 13.6676 19.3402C13.5268 19.427 13.3808 19.5058 13.2305 19.5757C13.2007 19.5895 13.171 19.6033 13.1408 19.6159C13.1324 19.6201 13.124 19.6235 13.1156 19.6272C12.8441 19.4365 12.588 19.2463 12.3416 19.0535C12.4229 19.0447 12.5038 19.033 12.5838 19.0183Z" fill="#999999"/>
</g>
<defs>
<clipPath id="clip0">
<rect width="22" height="20.0001" fill="white" transform="matrix(-1 0 0 1 22 0)"/>
</clipPath>
</defs>
</svg>
