<svg width="229" height="62" viewBox="0 0 229 62" fill="none" xmlns="http://www.w3.org/2000/svg">
<path d="M63.855 38.17C63.855 36.41 64.12 35.04 64.65 34.06C65.18 33.07 66.035 32.45 67.215 32.2C67.865 32.06 68.5 31.935 69.12 31.825C69.74 31.715 70.32 31.615 70.86 31.525L71.085 32.68C70.735 32.73 70.34 32.795 69.9 32.875C69.46 32.945 69.025 33.02 68.595 33.1C68.165 33.17 67.795 33.24 67.485 33.31C66.835 33.45 66.32 33.79 65.94 34.33C65.56 34.86 65.345 35.69 65.295 36.82H65.385C65.525 36.63 65.715 36.435 65.955 36.235C66.205 36.035 66.5 35.865 66.84 35.725C67.19 35.585 67.585 35.515 68.025 35.515C69.065 35.515 69.85 35.85 70.38 36.52C70.91 37.19 71.175 38.06 71.175 39.13C71.175 40.02 71.02 40.765 70.71 41.365C70.4 41.965 69.97 42.415 69.42 42.715C68.87 43.005 68.23 43.15 67.5 43.15C66.39 43.15 65.505 42.725 64.845 41.875C64.185 41.025 63.855 39.79 63.855 38.17ZM67.605 42.055C68.255 42.055 68.78 41.845 69.18 41.425C69.58 41.005 69.78 40.285 69.78 39.265C69.78 38.445 69.625 37.8 69.315 37.33C69.015 36.85 68.515 36.61 67.815 36.61C67.375 36.61 66.975 36.71 66.615 36.91C66.255 37.1 65.955 37.32 65.715 37.57C65.475 37.82 65.305 38.03 65.205 38.2C65.205 38.69 65.24 39.165 65.31 39.625C65.38 40.085 65.5 40.5 65.67 40.87C65.85 41.23 66.095 41.52 66.405 41.74C66.725 41.95 67.125 42.055 67.605 42.055ZM71.9945 34.96H73.4045L75.1445 39.535C75.2945 39.935 75.4295 40.32 75.5495 40.69C75.6695 41.05 75.7595 41.395 75.8195 41.725H75.8795C75.9395 41.475 76.0345 41.15 76.1645 40.75C76.2945 40.34 76.4295 39.93 76.5695 39.52L78.2045 34.96H79.6295L76.1645 44.11C75.8845 44.87 75.5195 45.475 75.0695 45.925C74.6295 46.375 74.0195 46.6 73.2395 46.6C72.9995 46.6 72.7895 46.585 72.6095 46.555C72.4295 46.535 72.2745 46.51 72.1445 46.48V45.43C72.2545 45.45 72.3845 45.47 72.5345 45.49C72.6945 45.51 72.8595 45.52 73.0295 45.52C73.4895 45.52 73.8595 45.39 74.1395 45.13C74.4295 44.87 74.6545 44.525 74.8145 44.095L75.2345 43.03L71.9945 34.96ZM82.806 38.89L80.031 34.96H81.531L83.601 37.99L85.656 34.96H87.141L84.366 38.89L87.291 43H85.791L83.601 39.79L81.381 43H79.896L82.806 38.89ZM93.7454 34.96V36.07H90.1604V43H88.8404V34.96H93.7454ZM98.3747 34.825C99.3547 34.825 100.08 35.04 100.55 35.47C101.02 35.9 101.255 36.585 101.255 37.525V43H100.295L100.04 41.86H99.9797C99.6297 42.3 99.2597 42.625 98.8697 42.835C98.4897 43.045 97.9597 43.15 97.2797 43.15C96.5497 43.15 95.9447 42.96 95.4647 42.58C94.9847 42.19 94.7447 41.585 94.7447 40.765C94.7447 39.965 95.0597 39.35 95.6897 38.92C96.3197 38.48 97.2897 38.24 98.5997 38.2L99.9647 38.155V37.675C99.9647 37.005 99.8197 36.54 99.5297 36.28C99.2397 36.02 98.8297 35.89 98.2997 35.89C97.8797 35.89 97.4797 35.955 97.0997 36.085C96.7197 36.205 96.3647 36.345 96.0347 36.505L95.6297 35.515C95.9797 35.325 96.3947 35.165 96.8747 35.035C97.3547 34.895 97.8547 34.825 98.3747 34.825ZM99.9497 39.07L98.7647 39.115C97.7647 39.155 97.0697 39.315 96.6797 39.595C96.2997 39.875 96.1097 40.27 96.1097 40.78C96.1097 41.23 96.2447 41.56 96.5147 41.77C96.7947 41.98 97.1497 42.085 97.5797 42.085C98.2597 42.085 98.8247 41.9 99.2747 41.53C99.7247 41.15 99.9497 40.57 99.9497 39.79V39.07ZM109.858 43H108.523V36.055H106.153C106.023 37.745 105.843 39.11 105.613 40.15C105.383 41.18 105.078 41.93 104.698 42.4C104.318 42.87 103.838 43.105 103.258 43.105C103.128 43.105 102.998 43.095 102.868 43.075C102.748 43.065 102.648 43.04 102.568 43V42.01C102.628 42.03 102.693 42.045 102.763 42.055C102.833 42.065 102.903 42.07 102.973 42.07C103.513 42.07 103.943 41.495 104.263 40.345C104.593 39.195 104.843 37.4 105.013 34.96H109.858V43ZM117.96 36.07H115.335V43H114.03V36.07H111.435V34.96H117.96V36.07ZM122.502 34.81C123.192 34.81 123.782 34.96 124.272 35.26C124.772 35.56 125.152 35.985 125.412 36.535C125.682 37.075 125.817 37.71 125.817 38.44V39.235H120.312C120.332 40.145 120.562 40.84 121.002 41.32C121.452 41.79 122.077 42.025 122.877 42.025C123.387 42.025 123.837 41.98 124.227 41.89C124.627 41.79 125.037 41.65 125.457 41.47V42.625C125.047 42.805 124.642 42.935 124.242 43.015C123.842 43.105 123.367 43.15 122.817 43.15C122.057 43.15 121.382 42.995 120.792 42.685C120.212 42.375 119.757 41.915 119.427 41.305C119.107 40.685 118.947 39.93 118.947 39.04C118.947 38.16 119.092 37.405 119.382 36.775C119.682 36.145 120.097 35.66 120.627 35.32C121.167 34.98 121.792 34.81 122.502 34.81ZM122.487 35.89C121.857 35.89 121.357 36.095 120.987 36.505C120.627 36.905 120.412 37.465 120.342 38.185H124.437C124.427 37.505 124.267 36.955 123.957 36.535C123.647 36.105 123.157 35.89 122.487 35.89ZM131.689 34.81C132.679 34.81 133.474 35.155 134.074 35.845C134.684 36.535 134.989 37.575 134.989 38.965C134.989 40.335 134.684 41.375 134.074 42.085C133.474 42.795 132.674 43.15 131.674 43.15C131.054 43.15 130.539 43.035 130.129 42.805C129.729 42.565 129.414 42.29 129.184 41.98H129.094C129.114 42.15 129.134 42.365 129.154 42.625C129.174 42.885 129.184 43.11 129.184 43.3V46.6H127.864V34.96H128.944L129.124 36.055H129.184C129.424 35.705 129.739 35.41 130.129 35.17C130.519 34.93 131.039 34.81 131.689 34.81ZM131.449 35.92C130.629 35.92 130.049 36.15 129.709 36.61C129.379 37.07 129.204 37.77 129.184 38.71V38.965C129.184 39.955 129.344 40.72 129.664 41.26C129.994 41.79 130.599 42.055 131.479 42.055C131.969 42.055 132.369 41.92 132.679 41.65C132.999 41.38 133.234 41.015 133.384 40.555C133.544 40.085 133.624 39.55 133.624 38.95C133.624 38.03 133.444 37.295 133.084 36.745C132.734 36.195 132.189 35.92 131.449 35.92ZM140.317 43.15C139.607 43.15 138.972 43.005 138.412 42.715C137.862 42.425 137.427 41.975 137.107 41.365C136.797 40.755 136.642 39.975 136.642 39.025C136.642 38.035 136.807 37.23 137.137 36.61C137.467 35.99 137.912 35.535 138.472 35.245C139.042 34.955 139.687 34.81 140.407 34.81C140.817 34.81 141.212 34.855 141.592 34.945C141.972 35.025 142.282 35.125 142.522 35.245L142.117 36.34C141.877 36.25 141.597 36.165 141.277 36.085C140.957 36.005 140.657 35.965 140.377 35.965C138.797 35.965 138.007 36.98 138.007 39.01C138.007 39.98 138.197 40.725 138.577 41.245C138.967 41.755 139.542 42.01 140.302 42.01C140.742 42.01 141.127 41.965 141.457 41.875C141.797 41.785 142.107 41.675 142.387 41.545V42.715C142.117 42.855 141.817 42.96 141.487 43.03C141.167 43.11 140.777 43.15 140.317 43.15ZM149.054 34.96H150.494L147.059 38.83L150.779 43H149.249L145.619 38.92V43H144.299V34.96H145.619V38.86L149.054 34.96ZM153.484 34.96V39.865C153.484 39.985 153.479 40.165 153.469 40.405C153.459 40.645 153.444 40.885 153.424 41.125C153.414 41.365 153.404 41.555 153.394 41.695L157.699 34.96H159.319V43H158.089V38.26C158.089 38.1 158.089 37.89 158.089 37.63C158.099 37.37 158.109 37.115 158.119 36.865C158.129 36.605 158.139 36.41 158.149 36.28L153.874 43H152.239V34.96H153.484ZM164.983 34.81C165.673 34.81 166.263 34.96 166.753 35.26C167.253 35.56 167.633 35.985 167.893 36.535C168.163 37.075 168.298 37.71 168.298 38.44V39.235H162.793C162.813 40.145 163.043 40.84 163.483 41.32C163.933 41.79 164.558 42.025 165.358 42.025C165.868 42.025 166.318 41.98 166.708 41.89C167.108 41.79 167.518 41.65 167.938 41.47V42.625C167.528 42.805 167.123 42.935 166.723 43.015C166.323 43.105 165.848 43.15 165.298 43.15C164.538 43.15 163.863 42.995 163.273 42.685C162.693 42.375 162.238 41.915 161.908 41.305C161.588 40.685 161.428 39.93 161.428 39.04C161.428 38.16 161.573 37.405 161.863 36.775C162.163 36.145 162.578 35.66 163.108 35.32C163.648 34.98 164.273 34.81 164.983 34.81ZM164.968 35.89C164.338 35.89 163.838 36.095 163.468 36.505C163.108 36.905 162.893 37.465 162.823 38.185H166.918C166.908 37.505 166.748 36.955 166.438 36.535C166.128 36.105 165.638 35.89 164.968 35.89ZM65.52 49.96V54.865C65.52 54.985 65.515 55.165 65.505 55.405C65.495 55.645 65.48 55.885 65.46 56.125C65.45 56.365 65.44 56.555 65.43 56.695L69.735 49.96H71.355V58H70.125V53.26C70.125 53.1 70.125 52.89 70.125 52.63C70.135 52.37 70.145 52.115 70.155 51.865C70.165 51.605 70.175 51.41 70.185 51.28L65.91 58H64.275V49.96H65.52ZM88.2209 53.965C88.2209 55.295 87.9009 56.325 87.2609 57.055C86.6209 57.785 85.7559 58.15 84.6659 58.15C83.6459 58.15 82.8209 57.83 82.1909 57.19C81.5709 56.55 81.2209 55.625 81.1409 54.415H79.1009V58H77.7809V49.96H79.1009V53.305H81.1559C81.2659 52.175 81.6309 51.31 82.2509 50.71C82.8709 50.11 83.6859 49.81 84.6959 49.81C85.3859 49.81 85.9959 49.975 86.5259 50.305C87.0559 50.625 87.4709 51.095 87.7709 51.715C88.0709 52.325 88.2209 53.075 88.2209 53.965ZM82.4909 53.965C82.4909 54.975 82.6659 55.745 83.0159 56.275C83.3659 56.795 83.9209 57.055 84.6809 57.055C85.4509 57.055 86.0059 56.795 86.3459 56.275C86.6859 55.745 86.8559 54.975 86.8559 53.965C86.8559 52.955 86.6809 52.195 86.3309 51.685C85.9909 51.175 85.4409 50.92 84.6809 50.92C83.9209 50.92 83.3659 51.175 83.0159 51.685C82.6659 52.195 82.4909 52.955 82.4909 53.965ZM94.1449 49.81C95.1349 49.81 95.9299 50.155 96.5299 50.845C97.1399 51.535 97.4449 52.575 97.4449 53.965C97.4449 55.335 97.1399 56.375 96.5299 57.085C95.9299 57.795 95.1299 58.15 94.1299 58.15C93.5099 58.15 92.9949 58.035 92.5849 57.805C92.1849 57.565 91.8699 57.29 91.6399 56.98H91.5499C91.5699 57.15 91.5899 57.365 91.6099 57.625C91.6299 57.885 91.6399 58.11 91.6399 58.3V61.6H90.3199V49.96H91.3999L91.5799 51.055H91.6399C91.8799 50.705 92.1949 50.41 92.5849 50.17C92.9749 49.93 93.4949 49.81 94.1449 49.81ZM93.9049 50.92C93.0849 50.92 92.5049 51.15 92.1649 51.61C91.8349 52.07 91.6599 52.77 91.6399 53.71V53.965C91.6399 54.955 91.7999 55.72 92.1199 56.26C92.4499 56.79 93.0549 57.055 93.9349 57.055C94.4249 57.055 94.8249 56.92 95.1349 56.65C95.4549 56.38 95.6899 56.015 95.8399 55.555C95.9999 55.085 96.0799 54.55 96.0799 53.95C96.0799 53.03 95.8999 52.295 95.5399 51.745C95.1899 51.195 94.6449 50.92 93.9049 50.92ZM100.793 49.96V54.865C100.793 54.985 100.788 55.165 100.778 55.405C100.768 55.645 100.753 55.885 100.733 56.125C100.723 56.365 100.713 56.555 100.703 56.695L105.008 49.96H106.628V58H105.398V53.26C105.398 53.1 105.398 52.89 105.398 52.63C105.408 52.37 105.418 52.115 105.428 51.865C105.438 51.605 105.448 51.41 105.458 51.28L101.183 58H99.5484V49.96H100.793ZM115.157 49.96V56.89H116.327V60.79H115.052V58H109.457V60.79H108.197V56.89H108.842C109.532 55.94 110.047 54.86 110.387 53.65C110.737 52.43 110.917 51.2 110.927 49.96H115.157ZM113.882 50.995H112.097C112.057 51.675 111.952 52.38 111.782 53.11C111.612 53.83 111.392 54.52 111.122 55.18C110.862 55.84 110.557 56.41 110.207 56.89H113.882V50.995ZM119.148 49.96V54.865C119.148 54.985 119.143 55.165 119.133 55.405C119.123 55.645 119.108 55.885 119.088 56.125C119.078 56.365 119.068 56.555 119.058 56.695L123.363 49.96H124.983V58H123.753V53.26C123.753 53.1 123.753 52.89 123.753 52.63C123.763 52.37 123.773 52.115 123.783 51.865C123.793 51.605 123.803 51.41 123.813 51.28L119.538 58H117.903V49.96H119.148ZM128.697 49.96V52.885C128.697 53.805 129.212 54.265 130.242 54.265C130.742 54.265 131.197 54.19 131.607 54.04C132.017 53.88 132.437 53.67 132.867 53.41V49.96H134.187V58H132.867V54.415C132.417 54.705 131.972 54.935 131.532 55.105C131.102 55.265 130.582 55.345 129.972 55.345C129.152 55.345 128.512 55.13 128.052 54.7C127.602 54.27 127.377 53.695 127.377 52.975V49.96H128.697ZM139.846 49.81C140.536 49.81 141.126 49.96 141.616 50.26C142.116 50.56 142.496 50.985 142.756 51.535C143.026 52.075 143.161 52.71 143.161 53.44V54.235H137.656C137.676 55.145 137.906 55.84 138.346 56.32C138.796 56.79 139.421 57.025 140.221 57.025C140.731 57.025 141.181 56.98 141.571 56.89C141.971 56.79 142.381 56.65 142.801 56.47V57.625C142.391 57.805 141.986 57.935 141.586 58.015C141.186 58.105 140.711 58.15 140.161 58.15C139.401 58.15 138.726 57.995 138.136 57.685C137.556 57.375 137.101 56.915 136.771 56.305C136.451 55.685 136.291 54.93 136.291 54.04C136.291 53.16 136.436 52.405 136.726 51.775C137.026 51.145 137.441 50.66 137.971 50.32C138.511 49.98 139.136 49.81 139.846 49.81ZM139.831 50.89C139.201 50.89 138.701 51.095 138.331 51.505C137.971 51.905 137.756 52.465 137.686 53.185H141.781C141.771 52.505 141.611 51.955 141.301 51.535C140.991 51.105 140.501 50.89 139.831 50.89ZM148.433 58.15C147.723 58.15 147.088 58.005 146.528 57.715C145.978 57.425 145.543 56.975 145.223 56.365C144.913 55.755 144.758 54.975 144.758 54.025C144.758 53.035 144.923 52.23 145.253 51.61C145.583 50.99 146.028 50.535 146.588 50.245C147.158 49.955 147.803 49.81 148.523 49.81C148.933 49.81 149.328 49.855 149.708 49.945C150.088 50.025 150.398 50.125 150.638 50.245L150.233 51.34C149.993 51.25 149.713 51.165 149.393 51.085C149.073 51.005 148.773 50.965 148.493 50.965C146.913 50.965 146.123 51.98 146.123 54.01C146.123 54.98 146.313 55.725 146.693 56.245C147.083 56.755 147.658 57.01 148.418 57.01C148.858 57.01 149.243 56.965 149.573 56.875C149.913 56.785 150.223 56.675 150.503 56.545V57.715C150.233 57.855 149.933 57.96 149.603 58.03C149.283 58.11 148.893 58.15 148.433 58.15ZM157.17 49.96H158.61L155.175 53.83L158.895 58H157.365L153.735 53.92V58H152.415V49.96H153.735V53.86L157.17 49.96ZM161.599 49.96V54.865C161.599 54.985 161.594 55.165 161.584 55.405C161.574 55.645 161.559 55.885 161.539 56.125C161.529 56.365 161.519 56.555 161.509 56.695L165.814 49.96H167.434V58H166.204V53.26C166.204 53.1 166.204 52.89 166.204 52.63C166.214 52.37 166.224 52.115 166.234 51.865C166.244 51.605 166.254 51.41 166.264 51.28L161.989 58H160.354V49.96H161.599ZM173.098 49.81C173.788 49.81 174.378 49.96 174.868 50.26C175.368 50.56 175.748 50.985 176.008 51.535C176.278 52.075 176.413 52.71 176.413 53.44V54.235H170.908C170.928 55.145 171.158 55.84 171.598 56.32C172.048 56.79 172.673 57.025 173.473 57.025C173.983 57.025 174.433 56.98 174.823 56.89C175.223 56.79 175.633 56.65 176.053 56.47V57.625C175.643 57.805 175.238 57.935 174.838 58.015C174.438 58.105 173.963 58.15 173.413 58.15C172.653 58.15 171.978 57.995 171.388 57.685C170.808 57.375 170.353 56.915 170.023 56.305C169.703 55.685 169.543 54.93 169.543 54.04C169.543 53.16 169.688 52.405 169.978 51.775C170.278 51.145 170.693 50.66 171.223 50.32C171.763 49.98 172.388 49.81 173.098 49.81ZM173.083 50.89C172.453 50.89 171.953 51.095 171.583 51.505C171.223 51.905 171.008 52.465 170.938 53.185H175.033C175.023 52.505 174.863 51.955 174.553 51.535C174.243 51.105 173.753 50.89 173.083 50.89ZM181.067 49.96H182.477L184.217 54.535C184.367 54.935 184.502 55.32 184.622 55.69C184.742 56.05 184.832 56.395 184.892 56.725H184.952C185.012 56.475 185.107 56.15 185.237 55.75C185.367 55.34 185.502 54.93 185.642 54.52L187.277 49.96H188.702L185.237 59.11C184.957 59.87 184.592 60.475 184.142 60.925C183.702 61.375 183.092 61.6 182.312 61.6C182.072 61.6 181.862 61.585 181.682 61.555C181.502 61.535 181.347 61.51 181.217 61.48V60.43C181.327 60.45 181.457 60.47 181.607 60.49C181.767 60.51 181.932 60.52 182.102 60.52C182.562 60.52 182.932 60.39 183.212 60.13C183.502 59.87 183.727 59.525 183.887 59.095L184.307 58.03L181.067 49.96ZM193.198 58.15C192.488 58.15 191.853 58.005 191.293 57.715C190.743 57.425 190.308 56.975 189.988 56.365C189.678 55.755 189.523 54.975 189.523 54.025C189.523 53.035 189.688 52.23 190.018 51.61C190.348 50.99 190.793 50.535 191.353 50.245C191.923 49.955 192.568 49.81 193.288 49.81C193.698 49.81 194.093 49.855 194.473 49.945C194.853 50.025 195.163 50.125 195.403 50.245L194.998 51.34C194.758 51.25 194.478 51.165 194.158 51.085C193.838 51.005 193.538 50.965 193.258 50.965C191.678 50.965 190.888 51.98 190.888 54.01C190.888 54.98 191.078 55.725 191.458 56.245C191.848 56.755 192.423 57.01 193.183 57.01C193.623 57.01 194.008 56.965 194.338 56.875C194.678 56.785 194.988 56.675 195.268 56.545V57.715C194.998 57.855 194.698 57.96 194.368 58.03C194.048 58.11 193.658 58.15 193.198 58.15ZM203.3 58H201.965V51.055H199.595C199.465 52.745 199.285 54.11 199.055 55.15C198.825 56.18 198.52 56.93 198.14 57.4C197.76 57.87 197.28 58.105 196.7 58.105C196.57 58.105 196.44 58.095 196.31 58.075C196.19 58.065 196.09 58.04 196.01 58V57.01C196.07 57.03 196.135 57.045 196.205 57.055C196.275 57.065 196.345 57.07 196.415 57.07C196.955 57.07 197.385 56.495 197.705 55.345C198.035 54.195 198.285 52.4 198.455 49.96H203.3V58ZM204.592 49.96H206.002L207.742 54.535C207.892 54.935 208.027 55.32 208.147 55.69C208.267 56.05 208.357 56.395 208.417 56.725H208.477C208.537 56.475 208.632 56.15 208.762 55.75C208.892 55.34 209.027 54.93 209.167 54.52L210.802 49.96H212.227L208.762 59.11C208.482 59.87 208.117 60.475 207.667 60.925C207.227 61.375 206.617 61.6 205.837 61.6C205.597 61.6 205.387 61.585 205.207 61.555C205.027 61.535 204.872 61.51 204.742 61.48V60.43C204.852 60.45 204.982 60.47 205.132 60.49C205.292 60.51 205.457 60.52 205.627 60.52C206.087 60.52 206.457 60.39 206.737 60.13C207.027 59.87 207.252 59.525 207.412 59.095L207.832 58.03L204.592 49.96ZM218.404 49.96V51.07H214.819V58H213.499V49.96H218.404ZM221.233 49.96V54.865C221.233 54.985 221.228 55.165 221.218 55.405C221.208 55.645 221.193 55.885 221.173 56.125C221.163 56.365 221.153 56.555 221.143 56.695L225.448 49.96H227.068V58H225.838V53.26C225.838 53.1 225.838 52.89 225.838 52.63C225.848 52.37 225.858 52.115 225.868 51.865C225.878 51.605 225.888 51.41 225.898 51.28L221.623 58H219.988V49.96H221.233Z" fill="#3F3E3E"/>
<path d="M71.268 3.436C73.66 3.436 75.402 3.956 76.494 4.996C77.6033 6.01867 78.158 7.43133 78.158 9.234C78.158 10.3087 77.9327 11.3227 77.482 12.276C77.0313 13.212 76.2773 13.966 75.22 14.538C74.18 15.11 72.7587 15.396 70.956 15.396H69.266V22H65.34V3.436H71.268ZM71.06 6.66H69.266V12.172H70.566C71.6753 12.172 72.5507 11.9553 73.192 11.522C73.8507 11.0713 74.18 10.352 74.18 9.364C74.18 7.56133 73.14 6.66 71.06 6.66ZM94.9522 22H84.2662V3.436H94.9522V6.66H88.1922V10.742H94.4842V13.966H88.1922V18.75H94.9522V22ZM101.415 3.436H107.187C109.666 3.436 111.538 3.78267 112.803 4.476C114.068 5.16933 114.701 6.39133 114.701 8.142C114.701 9.19933 114.45 10.092 113.947 10.82C113.462 11.548 112.76 11.99 111.841 12.146V12.276C112.465 12.3973 113.028 12.614 113.531 12.926C114.034 13.238 114.432 13.6887 114.727 14.278C115.022 14.8673 115.169 15.6473 115.169 16.618C115.169 18.2993 114.562 19.6167 113.349 20.57C112.136 21.5233 110.472 22 108.357 22H101.415V3.436ZM105.341 10.794H107.629C108.773 10.794 109.562 10.612 109.995 10.248C110.446 9.884 110.671 9.35533 110.671 8.662C110.671 7.95133 110.411 7.44 109.891 7.128C109.371 6.816 108.548 6.66 107.421 6.66H105.341V10.794ZM105.341 13.914V18.75H107.915C109.094 18.75 109.917 18.5247 110.385 18.074C110.853 17.606 111.087 16.9907 111.087 16.228C111.087 15.5347 110.844 14.98 110.359 14.564C109.891 14.1307 109.033 13.914 107.785 13.914H105.341ZM121.484 3.436H125.02V12.406C125.02 12.8393 125.011 13.3247 124.994 13.862C124.976 14.3993 124.959 14.928 124.942 15.448C124.924 15.9507 124.907 16.3927 124.89 16.774C124.872 17.138 124.855 17.3893 124.838 17.528H124.916L133.496 3.436H138.202V22H134.692V13.082C134.692 12.614 134.7 12.1027 134.718 11.548C134.735 10.976 134.752 10.43 134.77 9.91C134.804 9.39 134.83 8.93933 134.848 8.558C134.882 8.15933 134.908 7.89933 134.926 7.778H134.822L126.216 22H121.484V3.436ZM158.306 7.778C158.306 9.026 157.864 10.0313 156.98 10.794C156.096 11.5567 154.969 12.0333 153.6 12.224V12.302C155.299 12.4753 156.599 12.952 157.5 13.732C158.419 14.4947 158.878 15.4913 158.878 16.722C158.878 18.3513 158.211 19.686 156.876 20.726C155.559 21.7487 153.617 22.26 151.052 22.26C149.648 22.26 148.4 22.1733 147.308 22C146.233 21.8267 145.297 21.5753 144.5 21.246V17.944C145.037 18.204 145.644 18.4293 146.32 18.62C146.996 18.7933 147.681 18.932 148.374 19.036C149.067 19.1227 149.709 19.166 150.298 19.166C151.945 19.166 153.132 18.932 153.86 18.464C154.605 17.9787 154.978 17.3027 154.978 16.436C154.978 15.552 154.441 14.9107 153.366 14.512C152.291 14.096 150.844 13.888 149.024 13.888H147.282V10.82H148.842C150.315 10.82 151.459 10.7247 152.274 10.534C153.089 10.3433 153.661 10.066 153.99 9.702C154.319 9.338 154.484 8.90467 154.484 8.402C154.484 7.76067 154.198 7.258 153.626 6.894C153.071 6.51267 152.231 6.322 151.104 6.322C150.151 6.322 149.249 6.46067 148.4 6.738C147.568 7.01533 146.788 7.37933 146.06 7.83L144.344 5.204C145.297 4.58 146.355 4.086 147.516 3.722C148.677 3.358 150.055 3.176 151.65 3.176C153.747 3.176 155.377 3.60933 156.538 4.476C157.717 5.34267 158.306 6.44333 158.306 7.778ZM181.795 12.692C181.795 14.616 181.475 16.2973 180.833 17.736C180.209 19.1573 179.247 20.2667 177.947 21.064C176.647 21.8613 174.983 22.26 172.955 22.26C170.945 22.26 169.281 21.8613 167.963 21.064C166.663 20.2667 165.693 19.1487 165.051 17.71C164.427 16.2713 164.115 14.59 164.115 12.666C164.115 10.742 164.427 9.06933 165.051 7.648C165.693 6.22667 166.663 5.126 167.963 4.346C169.281 3.54867 170.953 3.15 172.981 3.15C174.992 3.15 176.647 3.54867 177.947 4.346C179.247 5.126 180.209 6.23533 180.833 7.674C181.475 9.09533 181.795 10.768 181.795 12.692ZM168.249 12.692C168.249 14.6333 168.622 16.1673 169.367 17.294C170.113 18.4033 171.309 18.958 172.955 18.958C174.637 18.958 175.841 18.4033 176.569 17.294C177.297 16.1673 177.661 14.6333 177.661 12.692C177.661 10.7333 177.297 9.19933 176.569 8.09C175.841 6.98067 174.645 6.426 172.981 6.426C171.317 6.426 170.113 6.98067 169.367 8.09C168.622 9.19933 168.249 10.7333 168.249 12.692ZM194.169 3.436C196.561 3.436 198.303 3.956 199.395 4.996C200.504 6.01867 201.059 7.43133 201.059 9.234C201.059 10.3087 200.833 11.3227 200.383 12.276C199.932 13.212 199.178 13.966 198.121 14.538C197.081 15.11 195.659 15.396 193.857 15.396H192.167V22H188.241V3.436H194.169ZM193.961 6.66H192.167V12.172H193.467C194.576 12.172 195.451 11.9553 196.093 11.522C196.751 11.0713 197.081 10.352 197.081 9.364C197.081 7.56133 196.041 6.66 193.961 6.66Z" fill="#DE3131"/>
<path d="M28.2609 28.002C27.6369 28.002 27.1304 28.5182 27.1304 29.1543C27.1304 29.7904 27.6369 30.3066 28.2609 30.3066C28.8849 30.3066 29.3913 29.7904 29.3913 29.1543C29.3913 28.5182 28.8849 28.002 28.2609 28.002Z" fill="#DE3131"/>
<path d="M7.91304 11.5234C7.28972 11.5234 6.78261 11.0065 6.78261 10.3711C6.78261 9.73569 7.28972 9.21875 7.91304 9.21875C8.31344 9.21875 8.73634 9.42709 9.13572 9.82108C9.58439 10.2637 10.3002 10.2515 10.7342 9.79435C11.1682 9.33687 11.1565 8.60743 10.7078 8.16482C10.1341 7.5989 9.56009 7.27889 9.04337 7.10408V5.76172C9.04337 5.12539 8.53727 4.60938 7.91293 4.60938C7.28859 4.60938 6.7825 5.12539 6.7825 5.76172V7.11227C5.4669 7.58795 4.52174 8.8689 4.52174 10.3711C4.52174 12.2773 6.04308 13.8281 7.91304 13.8281C8.53637 13.8281 9.04348 14.3451 9.04348 14.9805C9.04348 15.6159 8.53637 16.1328 7.91304 16.1328C7.43001 16.1328 6.90865 15.8232 6.44506 15.2612C6.0433 14.7739 5.33023 14.7111 4.85239 15.1206C4.37444 15.5301 4.31284 16.257 4.71459 16.7441C5.31892 17.477 6.02951 17.9876 6.78261 18.2451V19.5898C6.78261 20.2262 7.2887 20.7422 7.91304 20.7422C8.53738 20.7422 9.04348 20.2262 9.04348 19.5898V18.2393C10.3592 17.7636 11.3043 16.4828 11.3043 14.9805C11.3043 13.0743 9.78301 11.5234 7.91304 11.5234Z" fill="#DE3131"/>
<path d="M28.2609 37.9121H23.7391C23.1148 37.9121 22.6087 38.4281 22.6087 39.0645V43.6738C22.6087 44.3102 23.1148 44.8262 23.7391 44.8262H28.2609C28.8851 44.8262 29.3913 44.3102 29.3913 43.6738V39.0645C29.3913 38.4281 28.8851 37.9121 28.2609 37.9121ZM27.1304 42.5215H24.8696V40.2168H27.1304V42.5215Z" fill="#DE3131"/>
<path d="M37.3043 37.9121H32.7826C32.1584 37.9121 31.6522 38.4281 31.6522 39.0645V43.6738C31.6522 44.3102 32.1584 44.8262 32.7826 44.8262H37.3043C37.9286 44.8262 38.4348 44.3102 38.4348 43.6738V39.0645C38.4348 38.4281 37.9286 37.9121 37.3043 37.9121ZM36.1739 42.5215H33.913V40.2168H36.1739V42.5215Z" fill="#DE3131"/>
<path d="M28.2609 47.1309H23.7391C23.1148 47.1309 22.6087 47.6469 22.6087 48.2832V52.8926C22.6087 53.5289 23.1148 54.0449 23.7391 54.0449H28.2609C28.8851 54.0449 29.3913 53.5289 29.3913 52.8926V48.2832C29.3913 47.6469 28.8851 47.1309 28.2609 47.1309ZM27.1304 51.7402H24.8696V49.4355H27.1304V51.7402Z" fill="#DE3131"/>
<path d="M37.3043 47.1309H32.7826C32.1584 47.1309 31.6522 47.6469 31.6522 48.2832V52.8926C31.6522 53.5289 32.1584 54.0449 32.7826 54.0449H37.3043C37.9286 54.0449 38.4348 53.5289 38.4348 52.8926V48.2832C38.4348 47.6469 37.9286 47.1309 37.3043 47.1309ZM36.1739 51.7402H33.913V49.4355H36.1739V51.7402Z" fill="#DE3131"/>
<path d="M46.3478 37.9121H41.8261C41.2019 37.9121 40.6957 38.4281 40.6957 39.0645V52.8926C40.6957 53.5289 41.2019 54.0449 41.8261 54.0449H46.3478C46.9721 54.0449 47.4783 53.5289 47.4783 52.8926V39.0645C47.4783 38.4281 46.9721 37.9121 46.3478 37.9121ZM45.2174 51.7402H42.9565V40.2168H45.2174V51.7402Z" fill="#DE3131"/>
<path d="M46.3478 23.3926H23.7391C23.1148 23.3926 22.6087 23.9086 22.6087 24.5449V34.4551C22.6087 35.0914 23.1148 35.6074 23.7391 35.6074H46.3478C46.9721 35.6074 47.4783 35.0914 47.4783 34.4551V24.5449C47.4783 23.9086 46.9721 23.3926 46.3478 23.3926ZM45.2174 33.3027H24.8696V25.6973H45.2174V33.3027Z" fill="#DE3131"/>
<path d="M48.6087 18.4375H38.4348V11.4762C38.4348 10.574 38.0961 9.7206 37.4821 9.07378L29.8818 1.05416C29.555 0.709613 29.1533 0.434895 28.722 0.256973C28.7066 0.249943 28.691 0.24349 28.6753 0.237152C28.6743 0.236691 28.6731 0.23623 28.6721 0.23577C28.2793 0.0792812 27.8656 0 27.4424 0H3.3913C1.52134 0 0 1.55082 0 3.45703V48.2832C0 50.1894 1.52134 51.7402 3.3913 51.7402H18.087V55.543C18.087 57.4492 19.6083 59 21.4783 59H48.6087C50.4787 59 52 57.4492 52 55.543V21.8945C52 19.9883 50.4787 18.4375 48.6087 18.4375ZM29.3913 3.85367L35.8568 10.676C36.0613 10.8914 36.1739 11.1754 36.1739 11.4762V11.5234H30.5217C29.8984 11.5234 29.3913 11.0065 29.3913 10.3711V3.85367ZM18.087 21.8945V49.4355H3.3913C2.76798 49.4355 2.26087 48.9186 2.26087 48.2832V3.45703C2.26087 2.82163 2.76798 2.30469 3.3913 2.30469H27.1304V10.3711C27.1304 12.2773 28.6518 13.8281 30.5217 13.8281H36.1739V18.4375H21.4783C19.6083 18.4375 18.087 19.9883 18.087 21.8945ZM49.7391 55.543C49.7391 56.1784 49.232 56.6953 48.6087 56.6953H21.4783C20.8549 56.6953 20.3478 56.1784 20.3478 55.543V21.8945C20.3478 21.2591 20.8549 20.7422 21.4783 20.7422H48.6087C49.232 20.7422 49.7391 21.2591 49.7391 21.8945V55.543Z" fill="#DE3131"/>
<path d="M41.8261 28.002H32.7826C32.1584 28.002 31.6522 28.518 31.6522 29.1543C31.6522 29.7906 32.1584 30.3066 32.7826 30.3066H41.8261C42.4503 30.3066 42.9565 29.7906 42.9565 29.1543C42.9565 28.518 42.4503 28.002 41.8261 28.002Z" fill="#DE3131"/>
<path d="M23.7391 13.8281H14.6957C14.0713 13.8281 13.5652 14.3441 13.5652 14.9805C13.5652 15.6168 14.0713 16.1328 14.6957 16.1328H23.7391C24.3634 16.1328 24.8696 15.6168 24.8696 14.9805C24.8696 14.3441 24.3634 13.8281 23.7391 13.8281Z" fill="#DE3131"/>
<path d="M23.7391 9.21875H14.6957C14.0713 9.21875 13.5652 9.73477 13.5652 10.3711C13.5652 11.0074 14.0713 11.5234 14.6957 11.5234H23.7391C24.3634 11.5234 24.8696 11.0074 24.8696 10.3711C24.8696 9.73477 24.3634 9.21875 23.7391 9.21875Z" fill="#DE3131"/>
<path d="M14.6957 23.3926H5.65217C5.02783 23.3926 4.52174 23.9086 4.52174 24.5449C4.52174 25.1812 5.02783 25.6973 5.65217 25.6973H14.6957C15.32 25.6973 15.8261 25.1812 15.8261 24.5449C15.8261 23.9086 15.32 23.3926 14.6957 23.3926Z" fill="#DE3131"/>
<path d="M7.91304 28.002H5.65217C5.02783 28.002 4.52174 28.518 4.52174 29.1543C4.52174 29.7906 5.02783 30.3066 5.65217 30.3066H7.91304C8.53738 30.3066 9.04348 29.7906 9.04348 29.1543C9.04348 28.518 8.53738 28.002 7.91304 28.002Z" fill="#DE3131"/>
<path d="M14.6957 28.002H12.4348C11.8104 28.002 11.3043 28.518 11.3043 29.1543C11.3043 29.7906 11.8104 30.3066 12.4348 30.3066H14.6957C15.32 30.3066 15.8261 29.7906 15.8261 29.1543C15.8261 28.518 15.32 28.002 14.6957 28.002Z" fill="#DE3131"/>
<path d="M7.91304 33.3027H5.65217C5.02783 33.3027 4.52174 33.8188 4.52174 34.4551C4.52174 35.0914 5.02783 35.6074 5.65217 35.6074H7.91304C8.53738 35.6074 9.04348 35.0914 9.04348 34.4551C9.04348 33.8188 8.53738 33.3027 7.91304 33.3027Z" fill="#DE3131"/>
<path d="M14.6957 33.3027H12.4348C11.8104 33.3027 11.3043 33.8188 11.3043 34.4551C11.3043 35.0914 11.8104 35.6074 12.4348 35.6074H14.6957C15.32 35.6074 15.8261 35.0914 15.8261 34.4551C15.8261 33.8188 15.32 33.3027 14.6957 33.3027Z" fill="#DE3131"/>
<path d="M7.91304 37.9121H5.65217C5.02783 37.9121 4.52174 38.4281 4.52174 39.0645C4.52174 39.7008 5.02783 40.2168 5.65217 40.2168H7.91304C8.53738 40.2168 9.04348 39.7008 9.04348 39.0645C9.04348 38.4281 8.53738 37.9121 7.91304 37.9121Z" fill="#DE3131"/>
<path d="M14.6957 37.9121H12.4348C11.8104 37.9121 11.3043 38.4281 11.3043 39.0645C11.3043 39.7008 11.8104 40.2168 12.4348 40.2168H14.6957C15.32 40.2168 15.8261 39.7008 15.8261 39.0645C15.8261 38.4281 15.32 37.9121 14.6957 37.9121Z" fill="#DE3131"/>
<path d="M7.91304 42.5215H5.65217C5.02783 42.5215 4.52174 43.0375 4.52174 43.6738C4.52174 44.3102 5.02783 44.8262 5.65217 44.8262H7.91304C8.53738 44.8262 9.04348 44.3102 9.04348 43.6738C9.04348 43.0375 8.53738 42.5215 7.91304 42.5215Z" fill="#DE3131"/>
<path d="M14.6957 42.5215H12.4348C11.8104 42.5215 11.3043 43.0375 11.3043 43.6738C11.3043 44.3102 11.8104 44.8262 12.4348 44.8262H14.6957C15.32 44.8262 15.8261 44.3102 15.8261 43.6738C15.8261 43.0375 15.32 42.5215 14.6957 42.5215Z" fill="#DE3131"/>
</svg>
